<svg version="1.1" id="Layer_1" xmlns="http://www.w3.org/2000/svg" xmlns:xlink="http://www.w3.org/1999/xlink" x="0px" y="0px"
	 width="100%" viewBox="0 0 2560 2560" enable-background="new 0 0 2560 2560" xml:space="preserve">
<path fill="#dfccac" opacity="1.000000" stroke="none" 
	d="
M1418.000000,2562.000000 
	C945.333313,2562.000000 473.666656,2562.000000 2.000000,2562.000000 
	C2.000000,1708.666626 2.000000,855.333313 2.000000,2.000000 
	C855.333313,2.000000 1708.666626,2.000000 2562.000000,2.000000 
	C2562.000000,855.333313 2562.000000,1708.666626 2562.000000,2562.000000 
	C2181.000000,2562.000000 1800.000000,2562.000000 1418.000000,2562.000000 
M2324.101807,1557.103149 
	C2330.069580,1519.216553 2333.934082,1481.104492 2335.858154,1442.811279 
	C2339.380127,1372.714355 2336.027832,1302.943481 2326.318359,1233.408203 
	C2316.704834,1164.561646 2300.453613,1097.382935 2277.651367,1031.757080 
	C2241.967773,929.059326 2192.271729,833.604736 2127.847168,746.072693 
	C2055.945312,648.381531 1970.319458,564.529480 1870.653076,495.163330 
	C1767.926880,423.667450 1655.896973,372.128693 1535.381104,338.862091 
	C1457.644775,317.404114 1378.328369,305.758575 1297.824219,302.412781 
	C1246.826416,300.293274 1195.779663,300.872955 1145.042847,306.699158 
	C1107.676147,310.990051 1070.258911,315.881226 1033.373657,323.105865 
	C954.973755,338.461761 879.575317,363.715454 806.616333,396.284515 
	C711.009094,438.963837 623.457458,494.413696 544.216675,562.757935 
	C472.460052,624.647217 409.175934,694.293457 355.493164,772.538269 
	C303.578583,848.205811 262.087128,929.204041 230.438385,1015.302124 
	C201.695816,1093.494141 182.355362,1173.969727 172.627640,1256.665283 
	C166.548752,1308.342163 164.270981,1360.246582 165.426880,1412.328003 
	C166.991760,1482.836914 174.936508,1552.540405 190.063232,1621.410400 
	C211.341278,1718.286621 245.739029,1810.359619 292.080170,1897.985840 
	C349.346802,2006.271118 423.768127,2101.386963 513.347900,2184.728027 
	C571.639099,2238.959229 635.281250,2286.023438 704.096802,2326.121826 
	C785.706787,2373.675537 872.035034,2409.953125 963.034729,2435.160400 
	C1047.916870,2458.672852 1134.496216,2470.792236 1222.453857,2473.326172 
	C1284.227051,2475.105713 1345.666382,2471.120605 1406.867920,2462.499512 
	C1477.372314,2452.567871 1546.087402,2435.613770 1613.168091,2411.818115 
	C1688.180908,2385.208252 1759.499878,2350.938477 1826.982666,2308.763672 
	C1894.221558,2266.740967 1955.846680,2217.632080 2012.432983,2162.054443 
	C2095.406982,2080.559570 2163.854492,1988.354614 2216.973633,1884.960449 
	C2269.877441,1781.985229 2305.976807,1673.352173 2324.101807,1557.103149 
z"/>
<path fill="#DFCCAC" opacity="1.000000" stroke="none" 
	d="
M2324.016357,1557.972412 
	C2305.976807,1673.352173 2269.877441,1781.985229 2216.973633,1884.960449 
	C2163.854492,1988.354614 2095.406982,2080.559570 2012.432983,2162.054443 
	C1955.846680,2217.632080 1894.221558,2266.740967 1826.982666,2308.763672 
	C1759.499878,2350.938477 1688.180908,2385.208252 1613.168091,2411.818115 
	C1546.087402,2435.613770 1477.372314,2452.567871 1406.867920,2462.499512 
	C1345.666382,2471.120605 1284.227051,2475.105713 1222.453857,2473.326172 
	C1134.496216,2470.792236 1047.916870,2458.672852 963.034729,2435.160400 
	C872.035034,2409.953125 785.706787,2373.675537 704.096802,2326.121826 
	C635.281250,2286.023438 571.639099,2238.959229 513.347900,2184.728027 
	C423.768127,2101.386963 349.346802,2006.271118 292.080170,1897.985840 
	C245.739029,1810.359619 211.341278,1718.286621 190.063232,1621.410400 
	C174.936508,1552.540405 166.991760,1482.836914 165.426880,1412.328003 
	C164.270981,1360.246582 166.548752,1308.342163 172.627640,1256.665283 
	C182.355362,1173.969727 201.695816,1093.494141 230.438385,1015.302124 
	C262.087128,929.204041 303.578583,848.205811 355.493164,772.538269 
	C409.175934,694.293457 472.460052,624.647217 544.216675,562.757935 
	C623.457458,494.413696 711.009094,438.963837 806.616333,396.284515 
	C879.575317,363.715454 954.973755,338.461761 1033.373657,323.105865 
	C1070.258911,315.881226 1107.676147,310.990051 1145.042847,306.699158 
	C1195.779663,300.872955 1246.826416,300.293274 1297.824219,302.412781 
	C1378.328369,305.758575 1457.644775,317.404114 1535.381104,338.862091 
	C1655.896973,372.128693 1767.926880,423.667450 1870.653076,495.163330 
	C1970.319458,564.529480 2055.945312,648.381531 2127.847168,746.072693 
	C2192.271729,833.604736 2241.967773,929.059326 2277.651367,1031.757080 
	C2300.453613,1097.382935 2316.704834,1164.561646 2326.318359,1233.408203 
	C2336.027832,1302.943481 2339.380127,1372.714355 2335.858154,1442.811279 
	C2333.934082,1481.104492 2330.069580,1519.216553 2324.016357,1557.972412 
M1590.504883,1656.567017 
	C1625.321289,1671.489990 1661.593140,1676.685547 1699.036377,1671.342529 
	C1752.625122,1663.695435 1797.257324,1639.080078 1833.059082,1598.466187 
	C1879.318604,1545.988892 1895.302246,1483.891235 1889.352051,1415.633545 
	C1885.442993,1370.789429 1868.357788,1330.526733 1841.122070,1294.619873 
	C1779.486450,1213.361084 1696.087646,1181.815918 1596.561523,1188.882812 
	C1553.276123,1191.956299 1513.381836,1206.947266 1476.614258,1229.951416 
	C1418.086548,1266.570068 1376.460083,1316.982910 1352.833862,1382.060059 
	C1342.878052,1409.482666 1336.387573,1437.730103 1334.634033,1466.778442 
	C1333.513062,1485.349976 1333.734009,1504.134399 1335.106323,1522.693726 
	C1337.183594,1550.785889 1345.243286,1577.681519 1355.088623,1603.971680 
	C1370.596558,1645.383179 1393.416870,1682.145020 1424.388550,1713.951416 
	C1457.494751,1747.949707 1496.586060,1772.823730 1539.884888,1791.356079 
	C1581.782104,1809.288574 1625.722656,1817.939575 1671.283691,1817.564941 
	C1693.624390,1817.381348 1715.774536,1814.696045 1737.728271,1810.289185 
	C1848.747559,1788.003540 1931.214111,1726.376465 1987.344849,1628.797241 
	C2011.404419,1586.971436 2025.767456,1541.724487 2031.480103,1493.836792 
	C2035.878906,1456.961914 2036.157471,1420.051147 2030.704956,1383.211670 
	C2023.942505,1337.521973 2008.826904,1294.705688 1986.235718,1254.501221 
	C1953.531128,1196.298462 1910.428833,1147.600464 1854.268311,1110.964600 
	C1816.246338,1086.161377 1774.924927,1068.878052 1731.263062,1056.737305 
	C1684.414185,1043.710449 1636.645630,1040.835815 1588.566162,1044.622803 
	C1542.754028,1048.231201 1498.540527,1059.879883 1456.355103,1078.068726 
	C1409.632935,1098.213501 1361.039917,1110.138916 1310.408569,1113.307007 
	C1268.447754,1115.932495 1227.212646,1110.528687 1187.114624,1097.871948 
	C1135.835205,1081.685791 1090.587280,1054.731689 1050.058472,1019.591858 
	C1005.538391,980.991516 972.741394,934.298035 953.825928,878.389709 
	C935.602661,824.527649 930.714844,769.193726 937.518799,712.746094 
	C942.451721,671.821350 954.630920,633.264709 975.637756,597.815552 
	C1011.532715,537.242676 1062.107300,492.597168 1125.816162,463.054291 
	C1177.290771,439.184662 1231.611938,431.326599 1287.729858,438.797546 
	C1345.245972,446.454651 1397.175049,468.157623 1440.681274,507.026154 
	C1512.900391,571.546814 1548.603027,651.133911 1536.226807,749.150513 
	C1529.167847,805.057617 1506.683838,853.860840 1467.129028,894.576416 
	C1442.158447,920.279907 1413.786377,940.694092 1380.330566,953.878113 
	C1348.718872,966.335266 1315.857300,970.061768 1282.193237,968.242920 
	C1217.571655,964.751465 1163.094116,940.470032 1123.466064,888.092102 
	C1093.812744,848.897888 1075.521973,805.348328 1077.323853,754.835815 
	C1079.755493,686.668579 1120.074707,623.304199 1182.060303,595.290222 
	C1235.417725,571.175720 1288.386963,573.726074 1336.889771,607.717102 
	C1379.998291,637.927551 1400.852173,680.337219 1393.998047,733.689087 
	C1389.230713,770.797485 1369.775391,798.950562 1336.444458,816.468323 
	C1309.162720,830.806824 1281.261230,830.764221 1254.091064,816.060974 
	C1236.217529,806.388611 1224.574341,791.265991 1220.661499,771.029785 
	C1218.117188,757.871826 1219.477417,745.040466 1227.095947,733.554443 
	C1234.198608,722.846252 1243.836426,716.433899 1257.233154,717.571533 
	C1269.107788,718.580078 1274.889893,726.447693 1272.596802,738.066223 
	C1272.338867,739.373474 1271.980591,740.666382 1271.808472,741.984192 
	C1270.509644,751.927856 1273.781860,757.076965 1283.251099,760.064575 
	C1293.760498,763.380432 1308.395630,758.063843 1315.935181,747.874878 
	C1328.772827,730.526184 1328.683838,711.778076 1320.375610,692.916809 
	C1307.604370,663.924438 1282.878662,652.019287 1253.199341,650.485657 
	C1213.629761,648.441040 1174.302856,675.736694 1158.378296,713.689880 
	C1149.877686,733.949646 1148.007568,755.057312 1150.194336,776.472595 
	C1152.971680,803.669250 1162.836182,828.157349 1181.673340,848.465027 
	C1239.417603,910.717163 1336.126953,916.020142 1402.682739,857.973206 
	C1450.712646,816.083740 1472.784790,762.572388 1466.244019,698.416931 
	C1460.345215,640.557800 1435.463867,592.738037 1389.470093,556.605286 
	C1338.915649,516.889771 1281.635498,500.802277 1217.937988,510.431000 
	C1148.555054,520.919189 1092.917969,554.315247 1053.018921,612.688354 
	C1032.683105,642.440369 1017.145752,674.325012 1011.123352,710.188538 
	C1006.418030,738.209412 1004.911011,766.345520 1007.779907,794.770447 
	C1012.660828,843.130615 1029.653564,886.449768 1059.397583,924.892822 
	C1085.279419,958.344299 1117.236694,984.703430 1153.707397,1005.635132 
	C1195.882690,1029.840820 1241.293213,1042.490234 1290.141602,1042.430908 
	C1321.056763,1042.393433 1351.217651,1037.770142 1380.739258,1028.807739 
	C1484.728638,997.237427 1554.121094,928.906189 1592.242065,828.145386 
	C1611.112427,778.267578 1615.102051,726.540039 1608.371826,673.695312 
	C1603.657593,636.679810 1594.208740,601.113647 1578.358398,567.395142 
	C1558.095947,524.290833 1529.719482,487.308563 1493.553467,456.150543 
	C1457.572510,425.151855 1417.833984,400.643463 1373.240601,384.221954 
	C1320.968262,364.972687 1267.053345,359.855133 1211.863647,365.864990 
	C1164.009277,371.076050 1118.355225,384.010803 1075.366455,405.599609 
	C1026.072021,430.355164 984.774536,465.068848 950.547729,508.296509 
	C913.630676,554.921936 886.685547,606.543091 872.558411,664.481140 
	C860.257935,714.927551 858.799133,765.898376 865.558228,817.322021 
	C877.239929,906.198242 914.489563,982.746704 975.634766,1047.920654 
	C997.126282,1070.828369 1021.144287,1090.909302 1046.066528,1109.942749 
	C1092.976929,1145.769043 1129.614258,1190.043091 1155.299072,1243.234497 
	C1188.883179,1312.784790 1200.376343,1385.834839 1188.194458,1462.148926 
	C1174.400879,1548.560547 1134.199097,1620.690186 1066.678345,1676.409546 
	C989.562927,1740.047119 900.825562,1766.041382 801.726379,1749.933228 
	C705.437195,1734.281860 630.760681,1684.251099 581.215454,1599.911987 
	C542.633423,1534.234985 529.430115,1463.623657 547.820679,1388.256470 
	C566.277100,1312.619507 605.070374,1251.716309 673.350159,1211.826416 
	C724.609985,1181.879761 779.432556,1167.744507 839.105957,1175.772461 
	C899.629089,1183.914917 951.039001,1209.416626 991.247681,1255.772217 
	C1037.047241,1308.573608 1056.338257,1369.925537 1046.005005,1439.258545 
	C1036.855713,1500.648315 1005.691101,1548.622437 952.666260,1581.580078 
	C893.331360,1618.459839 831.750000,1620.484497 769.815979,1589.689941 
	C707.149109,1558.531128 674.446472,1487.599121 686.067932,1425.641357 
	C694.908325,1378.510376 720.799988,1343.657837 765.733887,1325.319702 
	C804.167969,1309.634155 841.305054,1313.586060 873.887207,1340.243774 
	C897.285400,1359.387695 910.568970,1384.297852 906.011230,1415.721802 
	C902.694214,1438.591187 890.903870,1456.161133 869.663147,1466.252686 
	C853.823547,1473.778320 834.640259,1470.340698 824.272461,1459.056763 
	C813.356750,1447.176514 816.246826,1433.625732 830.196716,1428.703613 
	C831.138184,1428.371460 832.061279,1427.975342 832.964966,1427.549683 
	C844.197571,1422.259033 847.167114,1414.122925 841.590698,1403.051392 
	C836.140991,1392.231323 826.560608,1387.223267 815.062012,1385.932251 
	C792.506409,1383.400024 770.699585,1397.510864 760.287903,1420.114990 
	C746.787476,1449.424927 755.696716,1484.712402 777.342896,1508.141479 
	C794.402039,1526.605591 815.761719,1536.521606 840.566040,1538.978149 
	C871.718750,1542.063354 900.572510,1535.059937 925.013855,1515.344238 
	C973.365601,1476.341309 990.979858,1410.287598 968.046265,1352.626465 
	C943.116333,1289.946533 895.468506,1254.171875 829.311035,1246.758911 
	C758.819519,1238.860474 699.551575,1264.442017 656.217896,1320.546631 
	C610.479919,1379.764160 600.664490,1446.990845 622.192627,1518.349121 
	C635.572144,1562.697510 662.335083,1598.595947 697.630249,1628.003418 
	C729.999573,1654.973145 766.975647,1672.600098 808.864014,1679.291260 
	C834.394592,1683.369507 859.949646,1683.129761 885.566956,1680.262207 
	C917.047180,1676.738403 946.996277,1668.054688 974.976257,1653.191895 
	C1025.445190,1626.382935 1062.113037,1585.793457 1089.546997,1536.417114 
	C1106.114502,1506.598389 1114.941528,1474.292114 1118.517090,1440.412720 
	C1121.896362,1408.394653 1121.889282,1376.468628 1115.066284,1344.948975 
	C1099.038940,1270.908325 1059.450073,1211.608521 1000.374146,1164.959351 
	C970.415405,1141.302490 936.324463,1125.661987 899.892700,1114.812012 
	C852.231384,1100.617554 803.665405,1095.313843 754.711670,1104.884399 
	C641.689148,1126.979980 557.168030,1188.422119 504.788452,1291.688354 
	C469.901245,1360.468506 460.046539,1433.546143 472.604584,1509.454834 
	C487.107941,1597.122437 526.720642,1671.186035 594.386047,1729.546875 
	C639.153564,1768.158813 689.442261,1796.705688 746.474915,1813.132935 
	C780.690796,1822.988281 815.693726,1826.984741 851.072388,1827.411377 
	C867.325928,1827.607300 883.654602,1825.668335 899.871765,1823.961304 
	C938.552734,1819.889526 975.910583,1810.286011 1011.657471,1794.967529 
	C1066.358643,1771.526855 1113.521362,1737.379883 1153.825195,1693.636230 
	C1208.058838,1634.773438 1242.403687,1565.848022 1257.659424,1487.452393 
	C1261.917725,1465.569458 1263.906006,1443.249878 1267.993530,1421.327881 
	C1283.513062,1338.095581 1321.308716,1267.093750 1384.458618,1209.923828 
	C1416.167480,1181.217651 1451.202881,1157.930542 1490.845825,1141.908569 
	C1528.492432,1126.693481 1567.494019,1117.109253 1608.315308,1116.022827 
	C1636.041626,1115.284912 1663.582153,1117.056641 1690.889526,1122.024536 
	C1738.794922,1130.739380 1783.042847,1148.246216 1822.671997,1176.862915 
	C1859.916992,1203.757935 1890.053955,1237.259277 1914.602905,1275.916748 
	C1946.845459,1326.689331 1964.111084,1381.983765 1963.456909,1442.332031 
	C1963.137817,1471.776733 1958.233276,1500.651978 1949.778809,1528.926270 
	C1935.621460,1576.272095 1913.333740,1619.099854 1879.146606,1655.112549 
	C1850.737183,1685.038818 1816.696289,1706.815918 1778.666138,1722.653564 
	C1726.080811,1744.552734 1671.823608,1750.365601 1616.078613,1739.020020 
	C1549.253784,1725.419189 1495.113892,1691.226685 1454.911987,1635.947998 
	C1416.728638,1583.444946 1398.778564,1525.240356 1407.838623,1460.006836 
	C1417.190186,1392.674072 1447.273926,1337.528931 1504.025146,1298.463989 
	C1547.388184,1268.614746 1595.244751,1255.258301 1647.863892,1261.420776 
	C1713.112549,1269.062378 1762.829956,1301.187622 1796.296631,1357.752686 
	C1812.093750,1384.453003 1818.865967,1414.058594 1819.375244,1444.748657 
	C1819.742920,1466.909058 1813.925049,1488.216797 1805.465698,1508.795166 
	C1780.613647,1569.250977 1716.989990,1608.451782 1653.890259,1600.050049 
	C1612.063477,1594.480835 1579.943115,1573.521118 1560.540771,1535.970825 
	C1542.863647,1501.759155 1543.181152,1466.976074 1565.861450,1434.686035 
	C1581.572388,1412.318359 1603.473633,1399.822388 1631.647339,1402.131836 
	C1650.665405,1403.690918 1665.978760,1412.432373 1675.492065,1429.604980 
	C1682.057129,1441.455933 1681.791870,1453.257935 1673.848145,1464.453003 
	C1667.797852,1472.979492 1659.820435,1474.234741 1651.354248,1468.279907 
	C1649.997437,1467.325806 1648.853638,1466.074341 1647.531006,1465.065430 
	C1636.889648,1456.948242 1626.567505,1458.978760 1619.979614,1470.630615 
	C1615.078125,1479.299927 1614.781494,1488.445312 1618.180298,1497.660034 
	C1626.680054,1520.704224 1650.182617,1533.797607 1677.130859,1530.807129 
	C1707.764160,1527.407593 1728.214966,1509.390991 1740.306641,1481.828857 
	C1758.512939,1440.328857 1744.414185,1392.834351 1711.481079,1363.516846 
	C1679.650757,1335.181030 1641.714355,1325.188965 1599.877197,1333.188599 
	C1549.255981,1342.867920 1514.572510,1373.817139 1492.285767,1418.961182 
	C1473.896729,1456.210327 1472.698364,1495.953369 1483.704102,1535.110474 
	C1499.556152,1591.510132 1535.252563,1632.008667 1590.504883,1656.567017 
M932.999878,1970.448730 
	C974.646423,1970.287476 1016.292908,1970.127319 1057.939331,1969.944702 
	C1058.215088,1969.943604 1058.513062,1969.664917 1058.758057,1969.464111 
	C1059.013306,1969.254761 1059.217285,1968.982666 1059.703735,1968.457153 
	C1059.703735,1954.523315 1059.703735,1940.312622 1059.703735,1925.441406 
	C966.114075,1925.441406 873.038025,1925.441406 779.472290,1925.441406 
	C779.472290,2031.979126 779.472290,2137.763428 779.472290,2243.445068 
	C794.445618,2245.554688 1052.705322,2244.776611 1060.210815,2242.484619 
	C1060.210815,2230.427002 1060.239868,2218.136719 1060.181030,2205.847168 
	C1060.171753,2203.904785 1059.765747,2201.964600 1059.391479,2198.700195 
	C983.428040,2198.700195 907.644226,2198.700195 832.171997,2198.700195 
	C829.508118,2186.427490 830.102417,2115.025391 832.961365,2107.413818 
	C906.832214,2107.413818 981.052856,2107.413818 1055.981934,2107.413818 
	C1055.981934,2092.027588 1055.981934,2077.551025 1055.981934,2061.935547 
	C981.034546,2061.935547 906.543579,2061.935547 832.348572,2061.935547 
	C829.844482,2051.989746 830.010742,1979.293213 832.610596,1970.448853 
	C865.169006,1970.448853 898.084473,1970.448853 932.999878,1970.448730 
M1474.101807,2244.399902 
	C1479.162720,2245.178955 1480.979004,2242.083252 1482.586792,2237.959229 
	C1487.646240,2224.980469 1493.017578,2212.123047 1498.297485,2199.146484 
	C1558.271484,2199.146484 1617.495972,2199.146484 1677.484985,2199.146484 
	C1683.881470,2214.050293 1690.278442,2228.954834 1696.666748,2243.839600 
	C1713.412964,2243.839600 1729.576538,2243.839600 1747.049438,2243.839600 
	C1745.384155,2239.610107 1744.166626,2236.272705 1742.771729,2233.011719 
	C1719.854248,2179.428955 1696.916382,2125.854980 1673.979004,2072.280762 
	C1654.453857,2026.676636 1634.672729,1981.179199 1615.620117,1935.378540 
	C1612.064453,1926.830688 1607.621826,1923.680420 1598.609619,1924.528809 
	C1590.022949,1925.337158 1581.287354,1924.995850 1572.642944,1924.600708 
	C1567.163818,1924.350220 1564.135864,1926.193604 1562.113647,1931.404419 
	C1558.019165,1941.955322 1553.307739,1952.267090 1548.846802,1962.675659 
	C1510.414673,2052.348633 1471.963379,2142.013428 1433.613770,2231.721924 
	C1432.002441,2235.490967 1428.934692,2239.033691 1430.294067,2244.403809 
	C1444.349243,2244.403809 1458.308838,2244.403809 1474.101807,2244.399902 
M1331.171875,2139.801514 
	C1315.791870,2121.139404 1300.411865,2102.477051 1284.942505,2083.706299 
	C1329.178101,2030.689087 1372.580444,1978.670410 1417.627441,1924.680664 
	C1412.490112,1924.680664 1409.936890,1924.680786 1407.383667,1924.680664 
	C1394.057983,1924.680298 1380.712891,1925.110352 1367.414185,1924.510498 
	C1359.989258,1924.175659 1355.201050,1926.597046 1350.475342,1932.328125 
	C1321.020386,1968.050049 1291.182617,2003.456421 1261.451416,2038.950195 
	C1259.196167,2041.642578 1256.782837,2044.202637 1254.088623,2047.221313 
	C1251.112305,2043.773682 1248.910645,2041.330200 1246.824707,2038.791382 
	C1217.430298,2003.018188 1187.967651,1967.300293 1158.768433,1931.368408 
	C1154.821655,1926.511719 1150.802856,1924.313843 1144.438232,1924.531616 
	C1130.462769,1925.009766 1116.459351,1924.649780 1102.467651,1924.702637 
	C1099.292480,1924.714600 1096.118408,1925.013916 1091.154907,1925.275146 
	C1135.921143,1979.277344 1179.555054,2031.913574 1223.330078,2084.719971 
	C1178.900513,2138.010498 1135.313110,2190.291016 1090.615845,2243.902832 
	C1095.552002,2244.150146 1098.431641,2244.409668 1101.312134,2244.419189 
	C1114.637573,2244.463867 1127.972778,2244.142822 1141.285034,2244.564941 
	C1147.837646,2244.772705 1152.236816,2242.808350 1156.533325,2237.607422 
	C1186.234131,2201.656006 1216.297241,2166.003906 1246.255615,2130.265137 
	C1248.368042,2127.745117 1250.571899,2125.301758 1253.360352,2122.103271 
	C1256.360107,2125.565674 1258.988281,2128.486572 1261.494263,2131.508789 
	C1291.047729,2167.150391 1320.634766,2202.764648 1350.053223,2238.517334 
	C1353.508667,2242.717041 1357.103027,2244.719482 1362.703491,2244.565674 
	C1376.684814,2244.180908 1390.684082,2244.470947 1404.675781,2244.417236 
	C1408.155640,2244.403809 1411.634399,2244.114258 1416.892822,2243.868652 
	C1387.837891,2208.588867 1359.960938,2174.739502 1331.171875,2139.801514 
z"/>
<path fill="#FD8D23" opacity="1.000000" stroke="none" 
	d="
M1589.796753,1656.282349 
	C1535.252563,1632.008667 1499.556152,1591.510132 1483.704102,1535.110474 
	C1472.698364,1495.953369 1473.896729,1456.210327 1492.285767,1418.961182 
	C1514.572510,1373.817139 1549.255981,1342.867920 1599.877197,1333.188599 
	C1641.714355,1325.188965 1679.650757,1335.181030 1711.481079,1363.516846 
	C1744.414185,1392.834351 1758.512939,1440.328857 1740.306641,1481.828857 
	C1728.214966,1509.390991 1707.764160,1527.407593 1677.130859,1530.807129 
	C1650.182617,1533.797607 1626.680054,1520.704224 1618.180298,1497.660034 
	C1614.781494,1488.445312 1615.078125,1479.299927 1619.979614,1470.630615 
	C1626.567505,1458.978760 1636.889648,1456.948242 1647.531006,1465.065430 
	C1648.853638,1466.074341 1649.997437,1467.325806 1651.354248,1468.279907 
	C1659.820435,1474.234741 1667.797852,1472.979492 1673.848145,1464.453003 
	C1681.791870,1453.257935 1682.057129,1441.455933 1675.492065,1429.604980 
	C1665.978760,1412.432373 1650.665405,1403.690918 1631.647339,1402.131836 
	C1603.473633,1399.822388 1581.572388,1412.318359 1565.861450,1434.686035 
	C1543.181152,1466.976074 1542.863647,1501.759155 1560.540771,1535.970825 
	C1579.943115,1573.521118 1612.063477,1594.480835 1653.890259,1600.050049 
	C1716.989990,1608.451782 1780.613647,1569.250977 1805.465698,1508.795166 
	C1813.925049,1488.216797 1819.742920,1466.909058 1819.375244,1444.748657 
	C1818.865967,1414.058594 1812.093750,1384.453003 1796.296631,1357.752686 
	C1762.829956,1301.187622 1713.112549,1269.062378 1647.863892,1261.420776 
	C1595.244751,1255.258301 1547.388184,1268.614746 1504.025146,1298.463989 
	C1447.273926,1337.528931 1417.190186,1392.674072 1407.838623,1460.006836 
	C1398.778564,1525.240356 1416.728638,1583.444946 1454.911987,1635.947998 
	C1495.113892,1691.226685 1549.253784,1725.419189 1616.078613,1739.020020 
	C1671.823608,1750.365601 1726.080811,1744.552734 1778.666138,1722.653564 
	C1816.696289,1706.815918 1850.737183,1685.038818 1879.146606,1655.112549 
	C1913.333740,1619.099854 1935.621460,1576.272095 1949.778809,1528.926270 
	C1958.233276,1500.651978 1963.137817,1471.776733 1963.456909,1442.332031 
	C1964.111084,1381.983765 1946.845459,1326.689331 1914.602905,1275.916748 
	C1890.053955,1237.259277 1859.916992,1203.757935 1822.671997,1176.862915 
	C1783.042847,1148.246216 1738.794922,1130.739380 1690.889526,1122.024536 
	C1663.582153,1117.056641 1636.041626,1115.284912 1608.315308,1116.022827 
	C1567.494019,1117.109253 1528.492432,1126.693481 1490.845825,1141.908569 
	C1451.202881,1157.930542 1416.167480,1181.217651 1384.458618,1209.923828 
	C1321.308716,1267.093750 1283.513062,1338.095581 1267.993530,1421.327881 
	C1263.906006,1443.249878 1261.917725,1465.569458 1257.659424,1487.452393 
	C1242.403687,1565.848022 1208.058838,1634.773438 1153.825195,1693.636230 
	C1113.521362,1737.379883 1066.358643,1771.526855 1011.657471,1794.967529 
	C975.910583,1810.286011 938.552734,1819.889526 899.871765,1823.961304 
	C883.654602,1825.668335 867.325928,1827.607300 851.072388,1827.411377 
	C815.693726,1826.984741 780.690796,1822.988281 746.474915,1813.132935 
	C689.442261,1796.705688 639.153564,1768.158813 594.386047,1729.546875 
	C526.720642,1671.186035 487.107941,1597.122437 472.604584,1509.454834 
	C460.046539,1433.546143 469.901245,1360.468506 504.788452,1291.688354 
	C557.168030,1188.422119 641.689148,1126.979980 754.711670,1104.884399 
	C803.665405,1095.313843 852.231384,1100.617554 899.892700,1114.812012 
	C936.324463,1125.661987 970.415405,1141.302490 1000.374146,1164.959351 
	C1059.450073,1211.608521 1099.038940,1270.908325 1115.066284,1344.948975 
	C1121.889282,1376.468628 1121.896362,1408.394653 1118.517090,1440.412720 
	C1114.941528,1474.292114 1106.114502,1506.598389 1089.546997,1536.417114 
	C1062.113037,1585.793457 1025.445190,1626.382935 974.976257,1653.191895 
	C946.996277,1668.054688 917.047180,1676.738403 885.566956,1680.262207 
	C859.949646,1683.129761 834.394592,1683.369507 808.864014,1679.291260 
	C766.975647,1672.600098 729.999573,1654.973145 697.630249,1628.003418 
	C662.335083,1598.595947 635.572144,1562.697510 622.192627,1518.349121 
	C600.664490,1446.990845 610.479919,1379.764160 656.217896,1320.546631 
	C699.551575,1264.442017 758.819519,1238.860474 829.311035,1246.758911 
	C895.468506,1254.171875 943.116333,1289.946533 968.046265,1352.626465 
	C990.979858,1410.287598 973.365601,1476.341309 925.013855,1515.344238 
	C900.572510,1535.059937 871.718750,1542.063354 840.566040,1538.978149 
	C815.761719,1536.521606 794.402039,1526.605591 777.342896,1508.141479 
	C755.696716,1484.712402 746.787476,1449.424927 760.287903,1420.114990 
	C770.699585,1397.510864 792.506409,1383.400024 815.062012,1385.932251 
	C826.560608,1387.223267 836.140991,1392.231323 841.590698,1403.051392 
	C847.167114,1414.122925 844.197571,1422.259033 832.964966,1427.549683 
	C832.061279,1427.975342 831.138184,1428.371460 830.196716,1428.703613 
	C816.246826,1433.625732 813.356750,1447.176514 824.272461,1459.056763 
	C834.640259,1470.340698 853.823547,1473.778320 869.663147,1466.252686 
	C890.903870,1456.161133 902.694214,1438.591187 906.011230,1415.721802 
	C910.568970,1384.297852 897.285400,1359.387695 873.887207,1340.243774 
	C841.305054,1313.586060 804.167969,1309.634155 765.733887,1325.319702 
	C720.799988,1343.657837 694.908325,1378.510376 686.067932,1425.641357 
	C674.446472,1487.599121 707.149109,1558.531128 769.815979,1589.689941 
	C831.750000,1620.484497 893.331360,1618.459839 952.666260,1581.580078 
	C1005.691101,1548.622437 1036.855713,1500.648315 1046.005005,1439.258545 
	C1056.338257,1369.925537 1037.047241,1308.573608 991.247681,1255.772217 
	C951.039001,1209.416626 899.629089,1183.914917 839.105957,1175.772461 
	C779.432556,1167.744507 724.609985,1181.879761 673.350159,1211.826416 
	C605.070374,1251.716309 566.277100,1312.619507 547.820679,1388.256470 
	C529.430115,1463.623657 542.633423,1534.234985 581.215454,1599.911987 
	C630.760681,1684.251099 705.437195,1734.281860 801.726379,1749.933228 
	C900.825562,1766.041382 989.562927,1740.047119 1066.678345,1676.409546 
	C1134.199097,1620.690186 1174.400879,1548.560547 1188.194458,1462.148926 
	C1200.376343,1385.834839 1188.883179,1312.784790 1155.299072,1243.234497 
	C1129.614258,1190.043091 1092.976929,1145.769043 1046.066528,1109.942749 
	C1021.144287,1090.909302 997.126282,1070.828369 975.634766,1047.920654 
	C914.489563,982.746704 877.239929,906.198242 865.558228,817.322021 
	C858.799133,765.898376 860.257935,714.927551 872.558411,664.481140 
	C886.685547,606.543091 913.630676,554.921936 950.547729,508.296509 
	C984.774536,465.068848 1026.072021,430.355164 1075.366455,405.599609 
	C1118.355225,384.010803 1164.009277,371.076050 1211.863647,365.864990 
	C1267.053345,359.855133 1320.968262,364.972687 1373.240601,384.221954 
	C1417.833984,400.643463 1457.572510,425.151855 1493.553467,456.150543 
	C1529.719482,487.308563 1558.095947,524.290833 1578.358398,567.395142 
	C1594.208740,601.113647 1603.657593,636.679810 1608.371826,673.695312 
	C1615.102051,726.540039 1611.112427,778.267578 1592.242065,828.145386 
	C1554.121094,928.906189 1484.728638,997.237427 1380.739258,1028.807739 
	C1351.217651,1037.770142 1321.056763,1042.393433 1290.141602,1042.430908 
	C1241.293213,1042.490234 1195.882690,1029.840820 1153.707397,1005.635132 
	C1117.236694,984.703430 1085.279419,958.344299 1059.397583,924.892822 
	C1029.653564,886.449768 1012.660828,843.130615 1007.779907,794.770447 
	C1004.911011,766.345520 1006.418030,738.209412 1011.123352,710.188538 
	C1017.145752,674.325012 1032.683105,642.440369 1053.018921,612.688354 
	C1092.917969,554.315247 1148.555054,520.919189 1217.937988,510.431000 
	C1281.635498,500.802277 1338.915649,516.889771 1389.470093,556.605286 
	C1435.463867,592.738037 1460.345215,640.557800 1466.244019,698.416931 
	C1472.784790,762.572388 1450.712646,816.083740 1402.682739,857.973206 
	C1336.126953,916.020142 1239.417603,910.717163 1181.673340,848.465027 
	C1162.836182,828.157349 1152.971680,803.669250 1150.194336,776.472595 
	C1148.007568,755.057312 1149.877686,733.949646 1158.378296,713.689880 
	C1174.302856,675.736694 1213.629761,648.441040 1253.199341,650.485657 
	C1282.878662,652.019287 1307.604370,663.924438 1320.375610,692.916809 
	C1328.683838,711.778076 1328.772827,730.526184 1315.935181,747.874878 
	C1308.395630,758.063843 1293.760498,763.380432 1283.251099,760.064575 
	C1273.781860,757.076965 1270.509644,751.927856 1271.808472,741.984192 
	C1271.980591,740.666382 1272.338867,739.373474 1272.596802,738.066223 
	C1274.889893,726.447693 1269.107788,718.580078 1257.233154,717.571533 
	C1243.836426,716.433899 1234.198608,722.846252 1227.095947,733.554443 
	C1219.477417,745.040466 1218.117188,757.871826 1220.661499,771.029785 
	C1224.574341,791.265991 1236.217529,806.388611 1254.091064,816.060974 
	C1281.261230,830.764221 1309.162720,830.806824 1336.444458,816.468323 
	C1369.775391,798.950562 1389.230713,770.797485 1393.998047,733.689087 
	C1400.852173,680.337219 1379.998291,637.927551 1336.889771,607.717102 
	C1288.386963,573.726074 1235.417725,571.175720 1182.060303,595.290222 
	C1120.074707,623.304199 1079.755493,686.668579 1077.323853,754.835815 
	C1075.521973,805.348328 1093.812744,848.897888 1123.466064,888.092102 
	C1163.094116,940.470032 1217.571655,964.751465 1282.193237,968.242920 
	C1315.857300,970.061768 1348.718872,966.335266 1380.330566,953.878113 
	C1413.786377,940.694092 1442.158447,920.279907 1467.129028,894.576416 
	C1506.683838,853.860840 1529.167847,805.057617 1536.226807,749.150513 
	C1548.603027,651.133911 1512.900391,571.546814 1440.681274,507.026154 
	C1397.175049,468.157623 1345.245972,446.454651 1287.729858,438.797546 
	C1231.611938,431.326599 1177.290771,439.184662 1125.816162,463.054291 
	C1062.107300,492.597168 1011.532715,537.242676 975.637756,597.815552 
	C954.630920,633.264709 942.451721,671.821350 937.518799,712.746094 
	C930.714844,769.193726 935.602661,824.527649 953.825928,878.389709 
	C972.741394,934.298035 1005.538391,980.991516 1050.058472,1019.591858 
	C1090.587280,1054.731689 1135.835205,1081.685791 1187.114624,1097.871948 
	C1227.212646,1110.528687 1268.447754,1115.932495 1310.408569,1113.307007 
	C1361.039917,1110.138916 1409.632935,1098.213501 1456.355103,1078.068726 
	C1498.540527,1059.879883 1542.754028,1048.231201 1588.566162,1044.622803 
	C1636.645630,1040.835815 1684.414185,1043.710449 1731.263062,1056.737305 
	C1774.924927,1068.878052 1816.246338,1086.161377 1854.268311,1110.964600 
	C1910.428833,1147.600464 1953.531128,1196.298462 1986.235718,1254.501221 
	C2008.826904,1294.705688 2023.942505,1337.521973 2030.704956,1383.211670 
	C2036.157471,1420.051147 2035.878906,1456.961914 2031.480103,1493.836792 
	C2025.767456,1541.724487 2011.404419,1586.971436 1987.344849,1628.797241 
	C1931.214111,1726.376465 1848.747559,1788.003540 1737.728271,1810.289185 
	C1715.774536,1814.696045 1693.624390,1817.381348 1671.283691,1817.564941 
	C1625.722656,1817.939575 1581.782104,1809.288574 1539.884888,1791.356079 
	C1496.586060,1772.823730 1457.494751,1747.949707 1424.388550,1713.951416 
	C1393.416870,1682.145020 1370.596558,1645.383179 1355.088623,1603.971680 
	C1345.243286,1577.681519 1337.183594,1550.785889 1335.106323,1522.693726 
	C1333.734009,1504.134399 1333.513062,1485.349976 1334.634033,1466.778442 
	C1336.387573,1437.730103 1342.878052,1409.482666 1352.833862,1382.060059 
	C1376.460083,1316.982910 1418.086548,1266.570068 1476.614258,1229.951416 
	C1513.381836,1206.947266 1553.276123,1191.956299 1596.561523,1188.882812 
	C1696.087646,1181.815918 1779.486450,1213.361084 1841.122070,1294.619873 
	C1868.357788,1330.526733 1885.442993,1370.789429 1889.352051,1415.633545 
	C1895.302246,1483.891235 1879.318604,1545.988892 1833.059082,1598.466187 
	C1797.257324,1639.080078 1752.625122,1663.695435 1699.036377,1671.342529 
	C1661.593140,1676.685547 1625.321289,1671.489990 1589.796753,1656.282349 
M1264.575195,1184.422607 
	C1248.421997,1182.527588 1232.273193,1180.593018 1216.112061,1178.767700 
	C1212.398804,1178.348389 1208.643066,1178.304810 1204.530273,1178.066406 
	C1218.396362,1208.558228 1231.661743,1237.729248 1245.574585,1268.323853 
	C1251.743042,1258.565796 1257.296021,1249.270508 1263.364258,1240.324707 
	C1269.520874,1231.248535 1276.288818,1222.589844 1282.598999,1213.614746 
	C1288.751587,1204.864014 1296.882324,1197.480225 1302.537476,1186.805786 
	C1289.437500,1185.979980 1277.935303,1185.254883 1264.575195,1184.422607 
z"/>
<path fill="#2A2929" opacity="1.000000" stroke="none" 
	d="
M931.999878,1970.448730 
	C898.084473,1970.448853 865.169006,1970.448853 832.610596,1970.448853 
	C830.010742,1979.293213 829.844482,2051.989746 832.348572,2061.935547 
	C906.543579,2061.935547 981.034546,2061.935547 1055.981934,2061.935547 
	C1055.981934,2077.551025 1055.981934,2092.027588 1055.981934,2107.413818 
	C981.052856,2107.413818 906.832214,2107.413818 832.961365,2107.413818 
	C830.102417,2115.025391 829.508118,2186.427490 832.171997,2198.700195 
	C907.644226,2198.700195 983.428040,2198.700195 1059.391479,2198.700195 
	C1059.765747,2201.964600 1060.171753,2203.904785 1060.181030,2205.847168 
	C1060.239868,2218.136719 1060.210815,2230.427002 1060.210815,2242.484619 
	C1052.705322,2244.776611 794.445618,2245.554688 779.472290,2243.445068 
	C779.472290,2137.763428 779.472290,2031.979126 779.472290,1925.441406 
	C873.038025,1925.441406 966.114075,1925.441406 1059.703735,1925.441406 
	C1059.703735,1940.312622 1059.703735,1954.523315 1059.703735,1968.457153 
	C1059.217285,1968.982666 1059.013306,1969.254761 1058.758057,1969.464111 
	C1058.513062,1969.664917 1058.215088,1969.943604 1057.939331,1969.944702 
	C1016.292908,1970.127319 974.646423,1970.287476 931.999878,1970.448730 
z"/>
<path fill="#282828" opacity="1.000000" stroke="none" 
	d="
M1473.185181,2244.401855 
	C1458.308838,2244.403809 1444.349243,2244.403809 1430.294067,2244.403809 
	C1428.934692,2239.033691 1432.002441,2235.490967 1433.613770,2231.721924 
	C1471.963379,2142.013428 1510.414673,2052.348633 1548.846802,1962.675659 
	C1553.307739,1952.267090 1558.019165,1941.955322 1562.113647,1931.404419 
	C1564.135864,1926.193604 1567.163818,1924.350220 1572.642944,1924.600708 
	C1581.287354,1924.995850 1590.022949,1925.337158 1598.609619,1924.528809 
	C1607.621826,1923.680420 1612.064453,1926.830688 1615.620117,1935.378540 
	C1634.672729,1981.179199 1654.453857,2026.676636 1673.979004,2072.280762 
	C1696.916382,2125.854980 1719.854248,2179.428955 1742.771729,2233.011719 
	C1744.166626,2236.272705 1745.384155,2239.610107 1747.049438,2243.839600 
	C1729.576538,2243.839600 1713.412964,2243.839600 1696.666748,2243.839600 
	C1690.278442,2228.954834 1683.881470,2214.050293 1677.484985,2199.146484 
	C1617.495972,2199.146484 1558.271484,2199.146484 1498.297485,2199.146484 
	C1493.017578,2212.123047 1487.646240,2224.980469 1482.586792,2237.959229 
	C1480.979004,2242.083252 1479.162720,2245.178955 1473.185181,2244.401855 
M1552.526733,2069.462158 
	C1549.713013,2076.229736 1546.898315,2082.996826 1544.086060,2089.765137 
	C1541.146240,2096.840332 1538.216431,2103.919922 1535.268066,2110.991699 
	C1532.447998,2117.755615 1529.298096,2124.401855 1526.866333,2131.302002 
	C1524.402466,2138.292480 1519.393677,2144.542969 1519.742676,2152.491455 
	C1534.353149,2154.749268 1649.820312,2153.947266 1656.729614,2151.494629 
	C1656.203613,2149.655518 1655.855225,2147.712646 1655.110107,2145.936523 
	C1633.093994,2093.452393 1611.039062,2040.984375 1588.963013,1988.525269 
	C1588.879639,1988.327148 1588.407959,1988.258911 1588.103882,1988.196411 
	C1587.785278,1988.130737 1587.450073,1988.145508 1586.450195,1988.083618 
	C1575.407959,2014.606689 1564.279785,2041.336426 1552.526733,2069.462158 
z"/>
<path fill="#292928" opacity="1.000000" stroke="none" 
	d="
M1331.627930,2140.345703 
	C1359.960938,2174.739502 1387.837891,2208.588867 1416.892822,2243.868652 
	C1411.634399,2244.114258 1408.155640,2244.403809 1404.675781,2244.417236 
	C1390.684082,2244.470947 1376.684814,2244.180908 1362.703491,2244.565674 
	C1357.103027,2244.719482 1353.508667,2242.717041 1350.053223,2238.517334 
	C1320.634766,2202.764648 1291.047729,2167.150391 1261.494263,2131.508789 
	C1258.988281,2128.486572 1256.360107,2125.565674 1253.360352,2122.103271 
	C1250.571899,2125.301758 1248.368042,2127.745117 1246.255615,2130.265137 
	C1216.297241,2166.003906 1186.234131,2201.656006 1156.533325,2237.607422 
	C1152.236816,2242.808350 1147.837646,2244.772705 1141.285034,2244.564941 
	C1127.972778,2244.142822 1114.637573,2244.463867 1101.312134,2244.419189 
	C1098.431641,2244.409668 1095.552002,2244.150146 1090.615845,2243.902832 
	C1135.313110,2190.291016 1178.900513,2138.010498 1223.330078,2084.719971 
	C1179.555054,2031.913574 1135.921143,1979.277344 1091.154907,1925.275146 
	C1096.118408,1925.013916 1099.292480,1924.714600 1102.467651,1924.702637 
	C1116.459351,1924.649780 1130.462769,1925.009766 1144.438232,1924.531616 
	C1150.802856,1924.313843 1154.821655,1926.511719 1158.768433,1931.368408 
	C1187.967651,1967.300293 1217.430298,2003.018188 1246.824707,2038.791382 
	C1248.910645,2041.330200 1251.112305,2043.773682 1254.088623,2047.221313 
	C1256.782837,2044.202637 1259.196167,2041.642578 1261.451416,2038.950195 
	C1291.182617,2003.456421 1321.020386,1968.050049 1350.475342,1932.328125 
	C1355.201050,1926.597046 1359.989258,1924.175659 1367.414185,1924.510498 
	C1380.712891,1925.110352 1394.057983,1924.680298 1407.383667,1924.680664 
	C1409.936890,1924.680786 1412.490112,1924.680664 1417.627441,1924.680664 
	C1372.580444,1978.670410 1329.178101,2030.689087 1284.942505,2083.706299 
	C1300.411865,2102.477051 1315.791870,2121.139404 1331.627930,2140.345703 
z"/>
<path fill="#E0CBA8" opacity="1.000000" stroke="none" 
	d="
M1265.504150,1184.476318 
	C1277.935303,1185.254883 1289.437500,1185.979980 1302.537476,1186.805786 
	C1296.882324,1197.480225 1288.751587,1204.864014 1282.598999,1213.614746 
	C1276.288818,1222.589844 1269.520874,1231.248535 1263.364258,1240.324707 
	C1257.296021,1249.270508 1251.743042,1258.565796 1245.574585,1268.323853 
	C1231.661743,1237.729248 1218.396362,1208.558228 1204.530273,1178.066406 
	C1208.643066,1178.304810 1212.398804,1178.348389 1216.112061,1178.767700 
	C1232.273193,1180.593018 1248.421997,1182.527588 1265.504150,1184.476318 
z"/>
<path fill="#DCCAAA" opacity="1.000000" stroke="none" 
	d="
M1552.839111,2068.764160 
	C1564.279785,2041.336426 1575.407959,2014.606689 1586.450195,1988.083618 
	C1587.450073,1988.145508 1587.785278,1988.130737 1588.103882,1988.196411 
	C1588.407959,1988.258911 1588.879639,1988.327148 1588.963013,1988.525269 
	C1611.039062,2040.984375 1633.093994,2093.452393 1655.110107,2145.936523 
	C1655.855225,2147.712646 1656.203613,2149.655518 1656.729614,2151.494629 
	C1649.820312,2153.947266 1534.353149,2154.749268 1519.742676,2152.491455 
	C1519.393677,2144.542969 1524.402466,2138.292480 1526.866333,2131.302002 
	C1529.298096,2124.401855 1532.447998,2117.755615 1535.268066,2110.991699 
	C1538.216431,2103.919922 1541.146240,2096.840332 1544.086060,2089.765137 
	C1546.898315,2082.996826 1549.713013,2076.229736 1552.839111,2068.764160 
z"/>
</svg>