<?xml version="1.0" standalone="no"?>
<!DOCTYPE svg PUBLIC "-//W3C//DTD SVG 20010904//EN"
 "http://www.w3.org/TR/2001/REC-SVG-20010904/DTD/svg10.dtd">
<svg version="1.0" xmlns="http://www.w3.org/2000/svg"
 width="1728.000000pt" height="2304.000000pt" viewBox="0 0 1728.000000 2304.000000"
 preserveAspectRatio="xMidYMid meet">

<g transform="translate(0.000000,2304.000000) scale(0.100000,-0.100000)"
fill="#000000" stroke="none">
<path d="M8175 15642 c-58 -5 -105 -56 -105 -114 -1 -24 -1 -90 -2 -148 0 -58
0 -231 1 -386 1 -154 -1 -304 -5 -333 -6 -48 -5 -53 15 -58 38 -10 22 -23 -27
-23 -54 0 -92 28 -92 68 0 11 -5 24 -10 27 -16 10 -24 -23 -10 -40 7 -8 11
-15 9 -16 -34 -7 -37 -6 -32 8 4 11 2 14 -8 11 -8 -3 -13 -11 -12 -17 2 -6 -2
-11 -7 -11 -6 0 -10 9 -10 20 0 19 -1 19 -34 2 -19 -9 -32 -20 -31 -23 2 -3
-18 -6 -46 -6 -42 -1 -49 2 -49 18 0 11 -7 19 -15 19 -8 0 -15 -6 -15 -12 0
-10 -2 -10 -9 0 -5 8 -21 11 -44 9 -21 -2 -38 1 -41 7 -3 7 -7 8 -13 1 -10
-12 -54 -15 -47 -3 3 4 0 8 -5 8 -16 0 -13 -79 3 -96 8 -8 23 -14 33 -13 16 0
16 1 -2 8 -15 6 -9 9 27 12 25 2 44 1 41 -3 -2 -5 -11 -8 -19 -8 -8 0 -13 -4
-10 -9 7 -11 -128 -6 -145 5 -8 4 -9 3 -5 -4 4 -7 2 -12 -4 -12 -6 0 -13 7
-16 15 -7 17 -74 21 -74 5 0 -6 11 -8 28 -4 l27 6 -23 -17 c-23 -17 -25 -16
-53 4 -31 23 -54 27 -64 11 -3 -5 -22 -10 -41 -10 -26 0 -34 -4 -34 -18 0 -30
10 -32 47 -12 27 14 41 16 60 9 14 -5 30 -6 36 -3 8 5 8 2 0 -7 -16 -17 -17
-49 -1 -49 6 0 8 -3 5 -6 -4 -4 -13 -2 -21 5 -18 15 -56 22 -56 10 0 -5 8 -9
18 -10 13 0 12 -3 -6 -12 -18 -8 -25 -8 -31 2 -5 8 -18 10 -35 5 -21 -5 -25
-3 -20 10 3 9 1 16 -5 16 -6 0 -11 -6 -11 -12 0 -9 -4 -8 -10 2 -9 13 -11 13
-20 0 -7 -11 -10 -11 -10 -2 0 9 -15 12 -50 11 -41 -2 -50 -6 -50 -21 0 -10
-5 -18 -10 -18 -6 0 -5 -8 2 -19 14 -24 60 -32 77 -14 18 19 44 16 59 -8 16
-26 7 -39 -11 -15 -8 11 -19 15 -32 10 -18 -7 -18 -8 1 -15 15 -6 12 -8 -13
-8 -26 -1 -33 -5 -33 -21 0 -22 -10 -26 -28 -8 -8 8 -15 8 -27 -2 -21 -17 -29
-7 -15 19 6 13 21 21 38 22 26 1 26 2 -7 12 -27 9 -36 8 -45 -5 -6 -8 -17 -13
-23 -11 -8 3 -13 -6 -14 -24 0 -15 -2 -35 -4 -43 -2 -12 5 -15 31 -12 19 2 34
8 34 13 0 9 49 2 60 -8 3 -3 -5 -13 -17 -23 -12 -9 -19 -20 -16 -24 4 -3 -1
-6 -10 -6 -9 0 -33 -10 -54 -21 -21 -12 -67 -37 -103 -56 -143 -75 -217 -116
-267 -149 -29 -19 -57 -34 -63 -34 -5 0 -10 -4 -10 -8 0 -5 -17 -17 -37 -28
-21 -11 -78 -52 -127 -90 -49 -38 -103 -80 -122 -94 -106 -80 -150 -117 -247
-204 -59 -54 -104 -102 -101 -107 3 -6 12 -5 21 2 18 16 384 15 413 -1 10 -5
29 -10 41 -10 25 0 67 -12 144 -41 28 -10 63 -19 78 -19 25 0 64 16 77 31 3 3
37 21 75 40 39 19 72 37 73 42 2 4 13 7 24 7 12 0 26 6 32 13 6 7 37 21 69 32
31 10 57 22 57 27 0 4 9 8 19 8 11 0 22 4 25 9 3 5 18 12 33 16 25 6 61 21
150 61 17 8 40 14 52 14 12 0 21 5 21 10 0 6 13 10 29 10 16 0 34 6 40 14 7 8
21 12 31 9 11 -3 26 -1 33 4 6 6 24 13 40 17 15 3 27 10 27 14 0 5 13 7 29 4
16 -2 32 1 35 7 4 6 20 11 36 11 16 0 53 9 82 21 28 11 74 21 100 21 27 1 51
5 54 10 3 4 29 8 58 8 28 0 57 5 63 11 5 5 33 11 62 11 28 1 56 7 62 14 6 8
34 11 84 8 71 -3 75 -2 96 24 12 15 20 20 16 11 -5 -15 21 -16 296 -14 181 1
307 -2 315 -8 8 -6 17 -6 25 1 10 8 21 7 41 -4 21 -10 32 -11 41 -4 10 8 15 8
20 0 5 -7 20 -9 40 -6 23 5 38 2 48 -9 18 -17 53 -20 62 -5 4 6 18 4 38 -6 17
-9 61 -19 97 -22 36 -2 70 -9 77 -14 7 -5 22 -8 35 -7 13 2 33 -3 46 -9 14 -9
28 -10 39 -4 12 7 22 4 37 -9 11 -11 34 -19 52 -19 18 0 36 -5 40 -11 3 -6 16
-8 27 -5 11 3 32 -1 46 -8 34 -17 93 -36 114 -36 9 0 17 -4 17 -10 0 -5 11
-10 24 -10 14 0 28 -4 31 -10 3 -5 15 -10 26 -10 11 0 39 -9 61 -20 23 -11 48
-20 55 -20 7 0 28 -9 48 -20 20 -11 44 -20 55 -20 11 0 20 -4 20 -10 0 -5 11
-10 24 -10 13 0 26 -4 28 -9 4 -11 118 -53 118 -43 0 4 5 -1 11 -10 5 -10 16
-18 24 -18 8 0 37 -13 65 -30 28 -16 57 -30 64 -30 7 0 25 -9 39 -20 14 -11
30 -20 36 -20 6 0 11 -4 11 -10 0 -13 75 -13 98 0 9 5 40 17 67 26 112 37 180
45 352 46 162 0 175 -2 209 -23 l36 -22 -11 21 c-14 25 -204 212 -231 227 -10
5 -39 28 -63 50 -25 22 -67 56 -94 75 -26 19 -59 45 -73 58 -14 12 -33 25 -42
28 -10 3 -18 10 -18 15 0 5 -5 9 -10 9 -6 0 -16 5 -23 10 -18 16 -186 120
-192 120 -4 0 -21 11 -39 25 -18 14 -41 25 -50 25 -10 0 -30 9 -45 19 -15 11
-60 37 -101 58 -41 22 -92 49 -113 61 -21 12 -45 22 -55 22 -10 0 -13 3 -7 8
6 4 10 14 10 22 0 10 14 17 45 20 41 4 45 8 45 30 0 30 -28 34 -34 5 -3 -17
-2 -18 14 -5 16 13 18 13 13 0 -4 -14 -48 -25 -46 -11 1 3 -2 14 -6 24 -9 18
-36 24 -36 7 0 -5 -7 -10 -15 -10 -8 0 -15 5 -15 11 0 5 4 7 10 4 6 -3 7 1 4
9 -6 15 -18 20 -38 17 -6 -1 -20 0 -33 4 -19 4 -22 10 -17 31 5 18 1 31 -15
45 -12 11 -26 17 -33 13 -7 -4 -8 -3 -4 4 4 7 1 12 -9 12 -10 0 -15 -7 -13
-17 2 -14 -6 -19 -44 -23 -27 -3 -48 -3 -48 1 0 4 -11 10 -25 13 -27 7 -34 23
-10 23 8 0 12 -3 10 -7 -2 -4 11 -7 29 -8 35 -1 62 27 28 29 -42 3 -78 -3 -87
-15 -15 -17 -45 -8 -45 15 0 18 15 24 47 20 6 -1 14 3 18 9 3 5 -1 10 -9 10
-9 0 -16 5 -16 10 0 14 -57 13 -66 -2 -4 -7 -3 -8 4 -4 7 4 12 1 12 -8 0 -9
-7 -16 -15 -16 -8 0 -15 -7 -15 -15 0 -9 -9 -15 -22 -14 -22 0 -22 1 -3 9 18
8 17 9 -7 9 -39 1 -80 22 -74 38 3 7 -1 13 -10 13 -9 0 -12 -5 -8 -12 5 -9 2
-9 -9 1 -16 13 -21 9 -18 -14 1 -5 -5 -1 -14 10 -28 39 -37 46 -50 41 -7 -2
-15 4 -18 14 -3 13 0 18 13 17 10 -1 17 -4 14 -9 -2 -4 5 -12 16 -18 17 -9 20
-8 20 7 0 29 -13 41 -44 41 -19 0 -30 -6 -33 -19 -3 -11 -12 -19 -21 -19 -13
0 -13 2 2 19 9 10 14 25 10 35 -5 12 -2 15 10 10 12 -5 16 0 16 19 0 14 -4 28
-8 31 -10 6 -34 -8 -31 -20 4 -24 -3 -34 -26 -34 -14 0 -28 -7 -31 -15 -4 -8
-15 -15 -25 -15 -27 0 -24 -28 4 -33 12 -3 6 -4 -13 -4 -20 1 -34 7 -33 13 1
8 -13 10 -44 6 -37 -4 -49 -1 -61 14 -13 18 -14 17 -8 -9 4 -15 2 -37 -4 -48
-10 -18 -17 -20 -83 -13 -74 7 -152 37 -142 54 4 6 25 10 48 11 33 0 38 2 22
9 -18 8 -18 9 -2 9 16 1 17 3 3 16 -8 8 -25 14 -38 14 -13 -1 -31 2 -40 6 -11
4 -18 3 -18 -4 0 -6 6 -11 13 -12 17 -1 -44 -28 -65 -29 -10 0 -18 7 -18 15 0
15 10 19 44 15 11 -1 15 3 12 9 -4 6 -15 11 -24 11 -13 0 -12 5 8 20 21 16 22
20 7 20 -29 0 -57 -19 -51 -35 4 -10 0 -15 -16 -15 -11 0 -18 5 -15 10 9 15
-19 12 -41 -5 -16 -12 -50 -13 -203 -8 -124 4 -182 3 -178 -4 4 -6 -4 -8 -21
-5 -24 5 -24 6 -7 13 17 6 16 8 -8 8 -16 1 -26 -3 -23 -7 2 -4 -4 -8 -14 -8
-10 0 -16 4 -14 8 3 5 -1 11 -10 14 -8 3 -12 12 -9 20 3 8 -1 14 -11 14 -15 0
-20 -11 -17 -37 1 -7 -5 -13 -14 -13 -8 0 -16 5 -16 10 -1 6 -2 14 -3 19 -3
21 -16 23 -16 3 0 -20 -15 -28 -43 -23 -4 1 -10 -6 -13 -14 -9 -22 -31 -19
-37 5 -3 11 -1 18 3 15 5 -3 11 -1 15 5 4 6 10 8 15 5 5 -3 11 -1 15 5 3 5 -5
12 -19 16 -18 4 -31 -1 -48 -18 -12 -12 -23 -27 -23 -33 -1 -21 -45 -21 -45 0
0 8 3 14 8 14 20 -3 32 3 32 17 0 13 -4 13 -30 -2 -23 -14 -28 -24 -26 -46 3
-29 -16 -39 -30 -16 -4 6 -3 9 2 5 5 -3 7 14 5 39 -1 24 1 44 6 44 13 0 12
373 -1 383 -8 6 -7 10 1 14 10 3 10 10 2 24 -8 15 -7 24 3 36 10 13 10 17 1
20 -7 3 -13 14 -13 24 0 11 4 18 9 15 5 -3 9 6 9 19 0 14 -4 25 -9 25 -5 0 -9
18 -9 40 0 22 4 40 8 40 5 0 8 36 8 80 0 44 -3 80 -6 80 -16 0 -3 47 19 67 28
27 39 29 47 8 8 -21 80 -20 88 0 4 13 2 14 -14 5 -16 -9 -18 -8 -14 5 4 8 1
15 -5 15 -6 0 -11 -4 -11 -9 0 -5 -7 -11 -14 -14 -11 -4 -13 -1 -9 10 4 11 2
14 -5 9 -7 -4 -12 -2 -12 3 0 8 68 11 207 11 113 0 203 3 199 8 -8 7 -312 10
-391 4z m118 -997 c-3 -17 -30 -17 -37 0 -4 13 -1 16 17 13 12 -2 21 -7 20
-13z m-716 -71 c-3 -3 -12 -4 -19 -1 -8 3 -5 6 6 6 11 1 17 -2 13 -5z m686 -1
c-7 -2 -19 -2 -25 0 -7 3 -2 5 12 5 14 0 19 -2 13 -5z m727 -3 c0 -5 -4 -10
-9 -10 -6 0 -13 5 -16 10 -3 6 1 10 9 10 9 0 16 -4 16 -10z m-1010 -40 c0 -5
-5 -10 -11 -10 -5 0 -7 5 -4 10 3 6 8 10 11 10 2 0 4 -4 4 -10z m-480 -11 c0
-6 7 -9 15 -5 8 3 15 1 15 -4 0 -14 -23 -13 -37 1 -9 9 -21 6 -48 -10 -20 -11
-42 -21 -50 -21 -9 0 -12 -6 -8 -16 5 -14 3 -14 -16 -2 -18 11 -19 14 -6 16
11 3 14 10 10 20 -3 9 -3 14 0 10 3 -3 25 0 48 8 53 16 77 17 77 3z m264 -34
c-4 -8 -8 -15 -10 -15 -2 0 -4 7 -4 15 0 8 4 15 10 15 5 0 7 -7 4 -15z m1721
5 c-3 -5 -10 -10 -16 -10 -5 0 -9 5 -9 10 0 6 7 10 16 10 8 0 12 -4 9 -10z
m-2025 -10 c0 -5 -4 -10 -10 -10 -5 0 -10 5 -10 10 0 6 5 10 10 10 6 0 10 -4
10 -10z m2097 -6 c-3 -3 -12 -4 -19 -1 -8 3 -5 6 6 6 11 1 17 -2 13 -5z
m-2430 -10 c-3 -3 -12 -4 -19 -1 -8 3 -5 6 6 6 11 1 17 -2 13 -5z m2773 -18
c0 -3 -4 -8 -10 -11 -5 -3 -10 -1 -10 4 0 6 5 11 10 11 6 0 10 -2 10 -4z
m-2840 -16 c0 -5 -4 -10 -10 -10 -5 0 -10 5 -10 10 0 6 5 10 10 10 6 0 10 -4
10 -10z m220 -10 c0 -5 -7 -10 -15 -10 -8 0 -15 5 -15 10 0 6 7 10 15 10 8 0
15 -4 15 -10z m-290 -84 c0 -2 -8 -10 -17 -17 -16 -13 -17 -12 -4 4 13 16 21
21 21 13z m1915 -215 c-3 -6 -11 -11 -16 -11 -5 0 -4 6 3 14 14 16 24 13 13
-3z m-378 -83 c-3 -8 -6 -5 -6 6 -1 11 2 17 5 13 3 -3 4 -12 1 -19z m-277 -54
c0 -8 -5 -12 -10 -9 -6 4 -8 11 -5 16 9 14 15 11 15 -7z m517 -6 c-3 -8 -6 -5
-6 6 -1 11 2 17 5 13 3 -3 4 -12 1 -19z m-154 -26 c-18 -5 -27 3 -18 17 4 7
10 7 20 -2 11 -10 11 -13 -2 -15z m1207 -132 c0 -5 -5 -10 -11 -10 -5 0 -7 5
-4 10 3 6 8 10 11 10 2 0 4 -4 4 -10z"/>
<path d="M8635 15640 c3 -5 8 -10 11 -10 2 0 4 5 4 10 0 6 -5 10 -11 10 -5 0
-7 -4 -4 -10z"/>
<path d="M8662 15645 c4 -4 57 -8 117 -9 60 -1 108 1 105 3 -3 3 -55 7 -117 9
-62 2 -109 0 -105 -3z"/>
<path d="M8960 15640 c0 -5 9 -10 21 -10 11 0 17 5 14 10 -3 6 -13 10 -21 10
-8 0 -14 -4 -14 -10z"/>
<path d="M9048 15633 c40 -8 23 -21 -20 -16 -28 4 -39 3 -34 -5 12 -19 -27
-32 -54 -17 -13 7 -30 11 -37 8 -21 -8 -4 -23 28 -23 16 0 29 -4 29 -10 0 -5
17 -10 37 -10 20 0 34 3 30 6 -3 4 8 16 25 28 45 30 47 46 6 45 -23 -1 -26 -3
-10 -6z"/>
<path d="M8389 15604 c-7 -8 -16 -11 -23 -6 -15 11 -36 9 -36 -3 0 -6 33 -11
75 -11 41 -1 75 2 75 7 0 5 7 9 15 9 8 0 15 -4 15 -10 0 -15 97 -13 103 3 3
10 9 10 26 0 25 -16 51 -17 51 -3 0 6 -11 10 -25 10 -14 0 -25 4 -25 9 0 4
-54 9 -119 9 -93 1 -122 -2 -132 -14z m38 0 c-3 -3 -12 -4 -19 -1 -8 3 -5 6 6
6 11 1 17 -2 13 -5z"/>
<path d="M8717 15594 c3 -8 30 -13 84 -13 66 0 79 2 79 15 0 13 -3 14 -14 5
-10 -9 -16 -9 -21 -1 -5 8 -11 8 -19 1 -7 -6 -16 -8 -20 -4 -12 12 -36 12 -36
0 0 -8 -3 -8 -8 -2 -11 15 -51 14 -45 -1z"/>
<path d="M9102 15596 c7 -8 15 -12 17 -10 3 3 11 -6 18 -18 8 -14 12 -17 12
-8 1 24 -16 43 -39 47 -17 2 -19 1 -8 -11z"/>
<path d="M8120 15564 c0 -8 -4 -13 -9 -10 -5 4 -7 -3 -4 -14 3 -11 10 -20 16
-20 6 0 8 3 4 6 -3 4 1 13 9 21 8 8 12 19 9 24 -10 14 -25 10 -25 -7z"/>
<path d="M8476 15552 c-11 -10 -6 -21 7 -17 25 8 107 13 107 6 0 -4 7 -8 15
-8 8 0 15 5 15 11 0 6 5 4 10 -4 8 -13 10 -13 10 2 0 14 -12 16 -79 16 -44 0
-82 -2 -85 -6z"/>
<path d="M9117 15494 c3 -27 7 -51 9 -53 8 -9 3 75 -5 88 -5 8 -7 -5 -4 -35z"/>
<path d="M9138 15493 c6 -61 12 -68 12 -15 0 23 0 45 1 49 0 4 -4 9 -9 11 -6
2 -8 -17 -4 -45z"/>
<path d="M8143 15400 c-1 -116 0 -120 21 -120 15 0 17 3 7 9 -10 6 -13 36 -13
115 0 58 -3 108 -7 111 -4 2 -8 -50 -8 -115z"/>
<path d="M9124 15155 c0 -154 2 -216 3 -137 2 79 2 205 0 280 -1 75 -3 11 -3
-143z"/>
<path d="M9142 15370 c0 -19 2 -27 5 -17 2 9 2 25 0 35 -3 9 -5 1 -5 -18z"/>
<path d="M7451 15302 c-19 -9 -37 -24 -39 -32 -4 -11 0 -11 21 3 15 9 38 17
52 17 24 0 25 -2 11 -15 -8 -8 -19 -15 -25 -15 -6 0 -11 -5 -11 -11 0 -7 7 -8
18 -3 9 4 34 9 55 12 31 3 37 8 37 29 0 14 -4 22 -10 18 -6 -4 -8 -11 -5 -16
4 -5 -3 -9 -15 -9 -12 0 -18 5 -15 10 3 6 -4 11 -17 11 -19 1 -18 3 7 9 l30 8
-30 0 c-16 1 -45 -7 -64 -16z"/>
<path d="M9620 15302 c-19 -9 -36 -26 -38 -37 -3 -18 -1 -18 10 -4 7 9 28 20
46 24 18 3 30 11 26 16 -3 5 -1 9 5 9 5 0 11 -5 13 -12 3 -7 7 -6 11 5 9 23
-27 23 -73 -1z"/>
<path d="M9707 15306 c-4 -10 -7 -19 -7 -20 0 -2 14 -2 30 -1 17 1 30 -2 30
-7 0 -5 3 -7 8 -5 11 7 66 -28 77 -49 6 -10 16 -19 23 -20 6 -1 23 -2 37 -2
18 -2 25 -8 25 -22 0 -11 7 -20 16 -20 11 0 14 -6 9 -21 -11 -33 15 -42 37
-13 11 13 17 28 14 33 -3 5 -39 26 -78 46 -40 21 -75 41 -78 45 -10 15 -91 50
-101 44 -6 -3 -16 2 -23 11 -12 17 -13 17 -19 1z m283 -152 c0 -8 -4 -12 -10
-9 -5 3 -10 10 -10 16 0 5 5 9 10 9 6 0 10 -7 10 -16z"/>
<path d="M9140 15195 c0 -60 2 -106 5 -103 7 7 8 199 1 206 -3 3 -6 -43 -6
-103z"/>
<path d="M7598 15255 c-23 -31 -23 -34 7 -30 15 1 29 -4 34 -12 7 -13 9 -13
14 1 3 8 0 19 -7 23 -7 5 -17 15 -22 25 -8 14 -11 13 -26 -7z"/>
<path d="M9660 15259 c11 -8 7 -9 -16 -4 -24 5 -33 2 -38 -11 -9 -24 1 -30 24
-16 11 7 25 12 31 12 6 0 17 7 25 15 14 13 12 15 -13 15 -22 0 -25 -2 -13 -11z"/>
<path d="M7375 15243 c-49 -11 -105 -44 -104 -61 1 -15 2 -15 6 1 3 11 11 16
19 13 8 -3 14 -1 14 4 0 6 9 10 20 10 13 0 20 -7 20 -19 0 -24 -20 -38 -30
-21 -5 9 -9 9 -14 1 -4 -6 -3 -11 2 -11 5 0 12 -9 15 -20 4 -15 0 -20 -13 -20
-10 0 -20 8 -22 17 -3 15 -5 15 -23 -4 -15 -16 -25 -19 -35 -13 -21 14 -30 12
-30 -5 0 -8 6 -16 13 -16 20 -2 42 3 47 10 3 4 21 7 40 7 28 -1 35 3 35 19 1
11 6 19 13 18 7 -2 12 10 12 31 0 28 5 36 33 50 31 15 24 19 -18 9z"/>
<path d="M8140 15240 c0 -8 5 -22 10 -30 9 -13 10 -13 10 0 0 8 -5 22 -10 30
-9 13 -10 13 -10 0z"/>
<path d="M9544 15217 c-11 -17 -26 -47 -33 -64 -8 -18 -18 -33 -23 -33 -6 0
-7 -7 -4 -16 3 -8 2 -12 -4 -9 -6 3 -10 -1 -10 -9 0 -9 7 -16 15 -16 9 0 15 9
15 23 0 27 10 41 31 45 11 1 16 -6 16 -28 0 -18 -4 -27 -11 -23 -6 3 -5 0 2
-8 11 -12 14 -12 21 0 6 9 11 10 15 2 14 -22 26 -10 26 24 0 35 -12 46 -26 23
-5 -7 -10 -4 -16 11 -4 12 -12 20 -17 17 -13 -9 0 37 16 52 11 11 19 42 11 42
-2 0 -12 -15 -24 -33z"/>
<path d="M9751 15222 c6 -9 22 -18 35 -18 31 -2 22 11 -16 24 -26 10 -28 9
-19 -6z"/>
<path d="M7506 15215 c4 -8 11 -15 16 -15 6 0 5 6 -2 15 -7 8 -14 15 -16 15
-2 0 -1 -7 2 -15z"/>
<path d="M7410 15210 c0 -5 4 -10 9 -10 6 0 13 5 16 10 3 6 -1 10 -9 10 -9 0
-16 -4 -16 -10z"/>
<path d="M9567 15195 c-7 -16 8 -29 23 -20 10 6 2 35 -10 35 -4 0 -10 -7 -13
-15z"/>
<path d="M7601 15190 c0 -18 27 -56 34 -48 3 3 0 12 -8 19 -8 8 -16 21 -20 29
-5 13 -5 13 -6 0z"/>
<path d="M7234 15175 c-12 -7 -48 -29 -80 -46 -32 -18 -70 -44 -84 -57 l-25
-24 25 6 c14 3 30 6 37 6 7 0 10 6 7 14 -4 12 16 28 39 30 4 1 12 8 17 16 5 8
10 11 10 6 0 -6 6 -3 13 6 6 9 23 18 36 20 14 2 25 11 27 21 3 21 3 21 -22 2z"/>
<path d="M8140 15160 c0 -11 4 -20 9 -20 6 0 9 9 8 20 -1 11 -5 20 -9 20 -4 0
-8 -9 -8 -20z"/>
<path d="M7685 15147 c4 -22 3 -27 -7 -21 -10 6 -11 5 -1 -7 7 -8 10 -27 8
-41 -3 -16 0 -28 8 -31 16 -6 15 67 -2 103 l-11 25 5 -28z"/>
<path d="M7586 15135 c-3 -8 -1 -15 4 -15 6 0 10 7 10 15 0 8 -2 15 -4 15 -2
0 -6 -7 -10 -15z"/>
<path d="M9996 15118 c-18 -26 -20 -38 -6 -38 6 0 10 6 10 14 0 16 82 14 88
-3 2 -5 10 -7 18 -4 8 3 14 0 14 -6 0 -6 5 -11 11 -11 6 0 17 -7 25 -15 9 -8
21 -15 27 -15 7 0 3 7 -8 16 -11 8 -28 21 -38 29 -9 8 -24 15 -32 15 -8 0 -15
3 -15 8 0 8 -48 32 -66 32 -7 0 -20 -10 -28 -22z"/>
<path d="M8140 15090 c0 -16 4 -30 9 -30 5 0 9 14 9 30 -1 17 -5 30 -10 30 -4
0 -8 -13 -8 -30z"/>
<path d="M9923 15090 c1 -11 7 -20 14 -20 15 0 15 2 7 24 -9 23 -23 20 -21 -4z"/>
<path d="M7331 15071 c0 -14 3 -20 6 -12 5 11 7 11 14 0 6 -10 8 -6 7 12 -1
14 -8 26 -15 26 -8 0 -13 -11 -12 -26z"/>
<path d="M7720 15084 c0 -8 5 -12 10 -9 6 4 8 11 5 16 -9 14 -15 11 -15 -7z"/>
<path d="M7164 15077 c-16 -19 4 -33 54 -35 27 -2 42 1 42 9 0 7 -10 9 -30 6
-28 -6 -35 0 -31 26 2 12 -23 7 -35 -6z"/>
<path d="M9142 15050 c0 -19 2 -27 5 -17 2 9 2 25 0 35 -3 9 -5 1 -5 -18z"/>
<path d="M7740 15055 c0 -8 4 -15 10 -15 5 0 7 7 4 15 -4 8 -8 15 -10 15 -2 0
-4 -7 -4 -15z"/>
<path d="M9433 15030 c-12 -22 -18 -42 -13 -45 5 -3 11 1 13 7 4 10 6 10 6 0
1 -9 7 -8 26 4 24 16 25 16 25 -10 0 -24 3 -26 43 -23 29 2 41 7 39 16 -2 8 3
11 13 8 22 -9 19 16 -5 38 -10 9 -26 15 -34 12 -9 -4 -19 1 -24 10 -6 10 -11
12 -16 4 -5 -8 -13 -7 -29 4 -21 13 -23 12 -44 -25z m115 -33 c-1 -15 -8 -23
-20 -23 -12 0 -17 5 -13 14 3 7 5 18 5 23 0 5 7 9 15 9 9 0 14 -8 13 -23z"/>
<path d="M7275 15050 c-4 -6 5 -10 20 -10 15 0 24 4 20 10 -3 6 -12 10 -20 10
-8 0 -17 -4 -20 -10z"/>
<path d="M9940 15048 c0 -4 14 -8 30 -8 17 0 30 4 30 9 0 5 -13 9 -30 9 -16
-1 -30 -5 -30 -10z"/>
<path d="M10064 15049 c-2 -4 1 -9 8 -11 8 -3 12 -22 12 -51 -1 -26 3 -47 8
-47 5 0 6 5 3 10 -3 6 1 10 9 10 19 0 21 16 4 23 -10 4 -10 6 0 6 6 1 12 12
12 25 0 13 5 26 12 28 9 3 9 6 0 12 -7 4 -12 2 -12 -3 0 -6 -5 -11 -11 -11 -5
0 -8 4 -4 9 3 6 -4 9 -16 8 -11 -1 -22 -5 -25 -8z"/>
<path d="M8146 15024 c-9 -24 -7 -72 3 -79 6 -3 10 16 9 45 0 53 -2 59 -12 34z"/>
<path d="M8393 15000 c0 -25 2 -35 4 -22 2 12 2 32 0 45 -2 12 -4 2 -4 -23z"/>
<path d="M9033 15000 c0 -25 2 -35 4 -22 2 12 2 32 0 45 -2 12 -4 2 -4 -23z"/>
<path d="M10166 15010 c3 -14 2 -21 -3 -15 -10 12 -33 18 -33 8 0 -13 49 -32
56 -22 3 5 22 9 42 9 26 0 33 -3 23 -9 -8 -5 -20 -7 -28 -4 -7 3 -13 0 -13 -7
0 -8 8 -10 23 -6 12 3 28 6 35 6 6 0 12 7 12 15 0 8 -7 15 -15 15 -8 0 -15 4
-15 9 0 5 -7 12 -16 15 -8 3 -12 2 -9 -4 3 -6 1 -10 -4 -10 -6 0 -11 6 -11 14
0 8 -10 13 -25 12 -20 -1 -23 -5 -19 -26z"/>
<path d="M6950 15014 c-42 -28 -64 -64 -40 -64 6 0 10 9 10 19 0 23 28 31 53
17 13 -8 20 -7 27 4 14 21 12 36 -2 22 -7 -7 -18 -12 -26 -12 -12 0 -12 3 -2
15 16 19 10 19 -20 -1z"/>
<path d="M7757 15023 c-4 -3 0 -17 8 -30 14 -21 14 -25 -5 -45 -11 -12 -17
-24 -14 -27 3 -3 14 5 24 19 15 19 20 22 24 10 2 -8 7 -22 9 -30 3 -8 6 -4 6
10 0 28 -42 104 -52 93z"/>
<path d="M7696 14996 c-6 -26 1 -56 13 -56 13 0 34 48 28 64 -10 24 -34 19
-41 -8z"/>
<path d="M6940 14972 c0 -5 7 -9 15 -9 8 0 12 4 9 9 -3 4 -9 8 -15 8 -5 0 -9
-4 -9 -8z"/>
<path d="M9143 14930 c0 -30 2 -43 4 -27 2 15 2 39 0 55 -2 15 -4 2 -4 -28z"/>
<path d="M10294 14952 c-16 -8 -36 -23 -45 -34 -12 -13 -30 -18 -63 -18 -25 0
-46 -3 -46 -8 0 -11 94 -9 103 3 4 6 10 5 16 -3 7 -11 9 -11 14 2 4 9 16 16
28 16 17 0 19 3 10 14 -15 18 15 31 35 15 7 -6 19 -9 26 -7 7 3 -2 11 -18 20
-28 13 -34 13 -60 0z"/>
<path d="M6856 14952 c-7 -12 12 -38 21 -28 4 5 2 11 -5 13 -6 3 -10 9 -6 14
3 5 3 9 0 9 -3 0 -7 -4 -10 -8z"/>
<path d="M6987 14933 c-13 -13 -19 -14 -29 -5 -15 15 -38 16 -38 1 0 -5 6 -7
13 -3 9 6 8 3 -1 -8 -12 -15 -9 -17 27 -15 23 1 41 5 41 9 0 5 9 8 20 8 11 0
20 7 20 15 0 20 -32 19 -53 -2z"/>
<path d="M9390 14946 c0 -3 4 -16 10 -30 10 -28 41 -26 39 3 0 10 -2 11 -6 4
-8 -21 -25 -14 -18 7 5 14 2 20 -9 20 -9 0 -16 -2 -16 -4z"/>
<path d="M6816 14933 c-12 -12 -5 -23 14 -23 11 0 20 4 20 9 0 11 -26 22 -34
14z"/>
<path d="M8140 14918 c0 -7 5 -20 10 -28 8 -11 9 -9 8 13 -2 26 -18 40 -18 15z"/>
<path d="M6762 14908 c-18 -18 -15 -27 8 -21 11 3 18 9 15 13 -3 5 1 11 7 13
9 4 8 6 -2 6 -9 1 -21 -4 -28 -11z"/>
<path d="M9365 14910 c-3 -5 -1 -10 4 -10 6 0 11 5 11 10 0 6 -2 10 -4 10 -3
0 -8 -4 -11 -10z"/>
<path d="M10393 14880 c10 -37 25 -49 40 -34 3 4 2 15 -3 25 -7 12 -6 19 2 21
19 7 -1 28 -26 28 -22 0 -23 -2 -13 -40z m14 8 c-3 -8 -6 -5 -6 6 -1 11 2 17
5 13 3 -3 4 -12 1 -19z"/>
<path d="M7830 14895 c0 -8 4 -15 10 -15 5 0 7 7 4 15 -4 8 -8 15 -10 15 -2 0
-4 -7 -4 -15z"/>
<path d="M7025 14890 c3 -5 8 -10 11 -10 2 0 4 5 4 10 0 6 -5 10 -11 10 -5 0
-7 -4 -4 -10z"/>
<path d="M10345 14890 c3 -5 10 -10 16 -10 5 0 9 5 9 10 0 6 -7 10 -16 10 -8
0 -12 -4 -9 -10z"/>
<path d="M6918 14883 c7 -3 16 -2 19 1 4 3 -2 6 -13 5 -11 0 -14 -3 -6 -6z"/>
<path d="M6808 14873 c6 -2 18 -2 25 0 6 3 1 5 -13 5 -14 0 -19 -2 -12 -5z"/>
<path d="M6703 14858 c-19 -24 -23 -48 -9 -48 8 0 16 12 19 28 6 32 4 37 -10
20z"/>
<path d="M9140 14832 c0 -23 4 -42 8 -42 9 0 6 69 -3 78 -3 3 -5 -13 -5 -36z"/>
<path d="M9336 14855 c-3 -8 1 -21 9 -29 8 -7 11 -17 7 -22 -4 -5 0 -3 10 4
14 11 18 8 29 -22 7 -20 17 -36 21 -36 14 0 9 21 -12 47 -11 14 -20 32 -20 40
0 10 -7 13 -22 9 -13 -3 -17 -3 -10 0 14 7 16 24 3 24 -5 0 -11 -7 -15 -15z"/>
<path d="M10480 14855 c0 -8 -6 -14 -12 -12 -8 1 -12 -7 -10 -22 2 -22 -1 -23
-30 -17 -21 4 -28 3 -19 -3 7 -5 10 -14 7 -20 -10 -15 3 -53 15 -46 5 4 9 15
9 26 0 20 15 26 25 9 4 -6 11 -8 16 -5 13 9 11 -9 -3 -23 -6 -6 -8 -15 -4 -19
4 -4 11 -1 16 7 6 8 10 10 10 4 0 -12 -31 -42 -36 -34 -1 3 -4 3 -6 0 -3 -3 3
-12 13 -21 16 -16 17 -15 23 12 3 16 11 28 18 27 20 -4 19 101 -1 129 -19 26
-31 29 -31 8z m37 -85 c1 -27 1 -50 -1 -50 -9 0 -35 92 -29 106 10 27 27 -3
30 -56z"/>
<path d="M7840 14845 c0 -9 7 -30 16 -47 15 -29 15 -32 0 -43 -16 -12 -22 -35
-8 -35 4 0 15 11 24 25 18 24 15 55 -6 55 -8 0 -8 2 0 8 7 4 8 15 3 30 -10 25
-29 30 -29 7z"/>
<path d="M9407 14848 c-5 -16 10 -48 24 -48 14 0 7 52 -7 57 -7 2 -14 -2 -17
-9z"/>
<path d="M6858 14823 c7 -3 16 -2 19 1 4 3 -2 6 -13 5 -11 0 -14 -3 -6 -6z"/>
<path d="M9317 14823 c-7 -15 -2 -36 9 -40 7 -2 10 6 7 22 -6 26 -9 30 -16 18z"/>
<path d="M8142 14760 c1 -22 5 -40 10 -40 4 0 7 18 6 40 -1 22 -5 40 -10 40
-5 0 -8 -18 -6 -40z"/>
<path d="M6700 14768 c0 -19 2 -20 10 -8 13 19 13 30 0 30 -5 0 -10 -10 -10
-22z"/>
<path d="M9352 14751 c3 -31 6 -36 28 -36 19 0 26 -6 28 -24 3 -19 0 -22 -13
-18 -9 4 -14 3 -10 -3 3 -6 17 -10 31 -10 17 0 24 6 24 19 0 11 -6 22 -12 25
-10 5 -10 7 0 12 6 3 12 13 12 22 0 13 -3 12 -14 -4 -14 -19 -15 -19 -33 1
-10 11 -17 27 -15 36 1 9 -4 16 -13 16 -11 0 -15 -9 -13 -36z"/>
<path d="M6677 14748 c4 -18 14 -45 23 -60 l17 -28 0 30 c0 17 -4 26 -8 19 -4
-7 -10 6 -14 30 -4 22 -11 41 -16 41 -5 0 -6 -15 -2 -32z"/>
<path d="M9121 14758 c0 -14 -4 -35 -7 -45 -5 -17 -5 -17 6 0 6 10 9 30 7 45
l-4 27 -2 -27z"/>
<path d="M7910 14746 c0 -10 5 -14 10 -11 6 3 10 1 10 -4 0 -6 -13 -11 -29
-11 -21 0 -30 -6 -34 -22 -8 -29 0 -36 16 -14 8 11 26 19 43 19 16 0 24 2 17
4 -7 2 -10 10 -7 17 3 7 -2 19 -11 26 -12 10 -15 10 -15 -4z"/>
<path d="M9307 14753 c-4 -3 -7 -14 -7 -24 0 -19 26 -33 35 -19 4 6 -1 10 -10
10 -12 0 -15 6 -10 20 6 20 4 25 -8 13z"/>
<path d="M7746 14708 c-10 -15 -14 -17 -10 -5 4 9 1 17 -5 17 -15 0 -13 -21 4
-43 19 -26 104 -32 102 -8 -1 16 -13 21 -59 24 -10 1 -18 7 -18 13 0 7 8 15
18 17 14 4 14 5 1 6 -9 0 -24 -9 -33 -21z"/>
<path d="M6820 14696 c0 -31 6 -34 13 -6 3 11 1 23 -4 26 -5 3 -9 -6 -9 -20z"/>
<path d="M8615 14710 c-3 -5 1 -10 9 -10 9 0 16 5 16 10 0 6 -4 10 -9 10 -6 0
-13 -4 -16 -10z"/>
<path d="M8674 14711 c4 -5 0 -11 -6 -14 -21 -7 -6 -14 47 -20 48 -6 48 -5 13
5 -21 5 -38 16 -38 24 0 8 -5 14 -11 14 -5 0 -8 -4 -5 -9z"/>
<path d="M8870 14710 c-12 -7 -10 -9 8 -7 12 0 22 5 22 9 0 11 -12 10 -30 -2z"/>
<path d="M9066 14708 c7 -11 34 -10 34 1 0 6 -9 9 -19 8 -11 0 -17 -5 -15 -9z"/>
<path d="M9140 14699 c0 -11 5 -17 10 -14 6 3 10 13 10 21 0 8 -4 14 -10 14
-5 0 -10 -9 -10 -21z"/>
<path d="M10420 14710 c0 -5 5 -10 10 -10 6 0 10 5 10 10 0 6 -4 10 -10 10 -5
0 -10 -4 -10 -10z"/>
<path d="M8487 14696 c-5 -14 3 -16 61 -15 59 1 63 2 32 10 -19 4 -43 6 -54 2
-10 -3 -22 0 -26 7 -5 8 -9 7 -13 -4z"/>
<path d="M8722 14705 c3 -3 18 -8 34 -11 22 -3 25 -2 14 6 -15 10 -58 14 -48
5z"/>
<path d="M6737 14679 c3 -12 11 -18 19 -15 8 3 14 1 14 -5 0 -6 5 -7 11 -3 7
4 9 0 5 -14 -4 -11 -3 -23 2 -26 5 -3 9 11 10 30 1 19 -2 32 -7 30 -5 -3 -14
1 -21 9 -19 22 -39 19 -33 -6z"/>
<path d="M8428 14693 c6 -2 18 -2 25 0 6 3 1 5 -13 5 -14 0 -19 -2 -12 -5z"/>
<path d="M8780 14680 c-13 -8 -12 -10 3 -10 9 0 17 5 17 10 0 12 -1 12 -20 0z"/>
<path d="M10450 14670 c0 -5 -6 -10 -14 -10 -21 0 -25 -22 -9 -52 7 -16 10
-28 5 -28 -5 0 -13 10 -19 22 -9 20 -10 20 -10 -9 0 -18 4 -30 8 -27 4 2 9 -2
12 -8 9 -26 21 4 19 47 -1 34 2 45 13 45 8 0 15 -5 15 -12 0 -6 2 -9 5 -7 7 8
-6 49 -16 49 -5 0 -9 -4 -9 -10z"/>
<path d="M9308 14663 c6 -3 10 -9 6 -14 -9 -14 16 -10 32 5 12 13 10 15 -18
14 -18 -1 -27 -3 -20 -5z"/>
<path d="M6856 14634 c-9 -13 -12 -24 -6 -24 5 0 10 5 10 11 0 5 3 8 8 6 4 -3
12 1 19 8 10 10 9 14 -2 18 -7 3 -21 -5 -29 -19z"/>
<path d="M9140 14639 c0 -11 5 -17 10 -14 6 3 10 13 10 21 0 8 -4 14 -10 14
-5 0 -10 -9 -10 -21z"/>
<path d="M6735 14631 c4 -23 20 -41 38 -41 4 0 3 6 -3 13 -6 6 -17 21 -25 32
-14 19 -14 19 -10 -4z"/>
<path d="M10450 14620 c0 -5 5 -10 11 -10 5 0 7 5 4 10 -3 6 -8 10 -11 10 -2
0 -4 -4 -4 -10z"/>
<path d="M6842 14594 c-12 -8 -22 -10 -22 -5 0 6 -7 11 -16 11 -10 0 -14 -6
-11 -14 3 -8 1 -17 -6 -19 -13 -4 30 -100 66 -147 l19 -25 -7 24 c-5 16 -4 21
4 17 16 -10 13 9 -3 23 -11 10 -15 8 -19 -6 -4 -16 -5 -15 -6 2 0 11 -8 30
-16 42 -10 14 -12 24 -5 28 18 11 11 27 -10 22 -11 -3 -20 -2 -20 3 0 11 32
22 39 13 8 -11 42 -13 35 -2 -3 5 0 18 6 29 13 24 3 26 -28 4z"/>
<path d="M9911 14554 c0 -11 3 -14 6 -6 3 7 2 16 -1 19 -3 4 -6 -2 -5 -13z"/>
<path d="M9693 14553 c9 -3 17 -11 17 -19 0 -8 9 -14 19 -14 14 0 18 5 14 19
-3 13 -14 18 -36 18 -18 0 -24 -2 -14 -4z"/>
<path d="M9950 14549 c0 -5 5 -7 10 -4 6 3 10 1 10 -5 0 -8 9 -10 28 -5 49 12
49 25 -1 25 -26 0 -47 -5 -47 -11z"/>
<path d="M10340 14549 c0 -9 7 -22 15 -29 24 -20 19 -52 -7 -48 -16 2 -23 10
-23 27 0 18 -7 26 -28 32 -15 4 -25 4 -22 -1 3 -5 -1 -11 -7 -13 -10 -4 -10
-6 0 -6 7 -1 10 -5 7 -11 -3 -5 -1 -10 4 -10 6 0 11 -6 11 -14 0 -9 7 -13 20
-11 23 4 26 -8 6 -28 -12 -12 -18 -67 -7 -67 3 0 12 7 22 16 14 13 16 20 6 35
-9 14 -9 21 1 31 6 6 15 8 19 4 4 -4 1 -11 -7 -16 -8 -5 -12 -11 -9 -14 8 -9
23 8 48 53 24 44 24 44 3 39 -12 -4 -25 -1 -29 4 -4 7 -1 8 7 3 8 -5 11 -3 9
4 -3 7 -8 12 -13 11 -5 -1 -13 4 -17 12 -7 10 -9 9 -9 -3z"/>
<path d="M10400 14540 c0 -5 5 -10 10 -10 6 0 10 5 10 10 0 6 -4 10 -10 10 -5
0 -10 -4 -10 -10z"/>
<path d="M6844 14531 c4 -5 1 -11 -6 -13 -7 -3 -4 -12 11 -27 12 -12 26 -20
29 -16 4 3 2 9 -3 13 -16 11 -17 34 -3 43 9 6 6 9 -10 9 -13 0 -21 -4 -18 -9z"/>
<path d="M10055 14530 c-7 -11 2 -30 13 -30 4 0 8 9 8 20 0 21 -11 26 -21 10z"/>
<path d="M9970 14490 c0 -5 5 -10 11 -10 5 0 7 5 4 10 -3 6 -8 10 -11 10 -2 0
-4 -4 -4 -10z"/>
<path d="M6968 14473 c7 -3 16 -2 19 1 4 3 -2 6 -13 5 -11 0 -14 -3 -6 -6z"/>
<path d="M10241 14427 c-1 -20 16 -40 37 -44 6 -2 12 2 12 7 0 6 -7 10 -15 10
-9 0 -20 10 -25 23 -7 18 -9 19 -9 4z"/>
<path d="M6895 14368 c11 -49 22 -66 22 -32 0 16 3 37 7 47 6 13 3 17 -14 17
-19 0 -21 -4 -15 -32z"/>
<path d="M10180 14390 c0 -7 24 -20 36 -20 13 0 1 19 -16 23 -11 3 -20 2 -20
-3z"/>
<path d="M6931 14334 c0 -11 3 -14 6 -6 3 7 2 16 -1 19 -3 4 -6 -2 -5 -13z"/>
<path d="M8590 13741 c5 -11 10 -64 10 -118 0 -92 -2 -102 -29 -145 -42 -66
-111 -98 -211 -98 -111 0 -183 38 -219 115 -17 36 -21 64 -21 140 0 94 0 95
-24 95 -14 0 -27 -4 -30 -8 -2 -4 4 -34 15 -67 48 -146 -2 -281 -119 -315
-112 -33 -204 -20 -265 38 -47 44 -58 76 -60 173 -2 94 -6 101 -48 78 -18 -9
-19 -13 -7 -32 48 -76 58 -196 22 -272 -42 -89 -226 -137 -321 -84 -44 24 -82
66 -83 91 0 9 -4 19 -9 22 -4 3 -11 33 -15 66 -6 54 -9 60 -30 60 -28 0 -53
-25 -36 -35 15 -9 66 -114 75 -152 9 -46 -18 -132 -52 -165 -90 -86 -248 -103
-317 -33 -38 38 -72 106 -78 154 -4 30 -17 35 -43 15 -16 -12 -17 -18 -7 -32
6 -9 28 -48 48 -86 40 -77 41 -101 6 -179 -15 -35 -33 -52 -81 -82 -71 -42
-118 -52 -178 -36 -57 16 -93 48 -126 115 -30 58 -36 63 -68 46 -24 -13 -24
-32 0 -47 10 -6 36 -39 56 -73 34 -56 37 -67 32 -112 -9 -70 -33 -107 -106
-155 -49 -34 -72 -43 -104 -43 -67 1 -118 30 -169 98 l-46 61 -27 -29 -27 -29
36 -32 c132 -115 129 -233 -9 -336 -56 -42 -63 -45 -107 -40 -73 9 -106 30
-167 107 l-20 25 -31 -32 c-34 -36 -39 -63 -11 -63 11 0 37 -17 58 -37 86 -82
100 -128 63 -206 -38 -78 -114 -147 -163 -147 -58 0 -105 20 -157 67 -28 25
-52 44 -54 42 -13 -16 -56 -85 -56 -90 0 -3 22 -15 48 -27 27 -12 69 -43 95
-69 42 -41 47 -52 47 -90 0 -58 -33 -125 -88 -179 -39 -37 -52 -44 -85 -44
-44 0 -128 38 -169 77 -15 15 -30 25 -32 22 -10 -10 -46 -81 -46 -89 0 -5 12
-13 28 -16 44 -11 123 -57 159 -92 52 -51 46 -111 -21 -212 -36 -54 -62 -79
-92 -86 -35 -9 -108 19 -188 71 -27 18 -39 9 -50 -36 -6 -28 6 -39 45 -39 10
0 52 -15 93 -34 56 -26 77 -42 90 -67 25 -50 21 -68 -41 -197 -14 -29 -23 -55
-20 -58 5 -5 737 7 1297 21 107 2 601 8 1098 11 774 6 902 5 903 -7 0 -8 2
-34 3 -59 1 -25 0 -56 -2 -68 l-5 -24 -1081 6 c-1075 6 -1921 18 -2131 32
l-110 7 21 -24 c11 -13 29 -42 38 -64 10 -22 24 -53 32 -69 34 -70 8 -140 -64
-172 -20 -9 -54 -24 -75 -35 -22 -10 -52 -19 -68 -19 -16 0 -29 -2 -29 -5 0
-11 29 -75 34 -75 3 0 30 16 60 35 73 47 134 62 172 42 62 -32 124 -139 124
-215 0 -47 -3 -53 -41 -86 -46 -39 -118 -76 -148 -76 -11 0 -23 -5 -26 -11 -9
-13 36 -99 51 -99 5 0 23 13 39 30 37 39 106 70 154 70 33 0 47 -7 78 -38 75
-74 93 -108 94 -178 1 -48 -2 -59 -27 -86 -41 -43 -109 -88 -133 -88 -11 0
-23 -5 -26 -10 -7 -12 45 -100 59 -100 4 0 32 22 61 49 44 40 62 49 103 55 61
8 87 -1 139 -51 58 -53 83 -103 83 -163 0 -48 -3 -53 -64 -115 -35 -36 -71
-65 -80 -65 -24 0 -19 -16 17 -55 l33 -35 19 28 c65 90 164 134 228 101 41
-22 116 -90 131 -119 43 -86 28 -145 -58 -233 -36 -37 -49 -56 -42 -63 46 -39
45 -39 76 -3 16 19 29 39 30 45 0 21 78 63 128 70 37 5 59 2 86 -11 20 -10 36
-21 36 -26 0 -5 6 -9 14 -9 39 0 105 -110 106 -176 0 -26 -95 -174 -112 -174
-6 0 -1 -11 12 -25 26 -28 50 -33 50 -11 0 18 36 83 64 114 29 32 63 49 118
57 41 6 57 3 110 -23 72 -34 100 -61 123 -114 25 -60 19 -108 -21 -180 -19
-34 -41 -68 -48 -73 -16 -12 -2 -28 32 -39 19 -6 22 -4 22 21 0 16 4 33 8 38
5 6 15 26 23 45 17 45 67 100 90 100 10 0 21 5 24 10 3 6 31 10 61 10 41 0 72
-8 120 -31 82 -40 114 -83 121 -166 4 -53 1 -65 -35 -138 -23 -44 -40 -80 -39
-80 1 0 12 -6 24 -12 36 -21 43 -16 43 32 0 114 62 200 161 224 52 13 62 12
125 -9 37 -12 81 -31 96 -42 34 -24 63 -78 73 -135 6 -39 25 -61 25 -30 0 19
60 80 93 95 15 6 65 12 111 12 163 0 236 -69 236 -225 0 -51 -6 -88 -20 -120
-11 -26 -20 -49 -20 -51 0 -2 15 -4 33 -4 l34 0 -5 76 c-7 117 23 192 99 240
35 21 50 24 142 24 117 0 147 -10 196 -66 40 -45 43 -61 39 -199 -3 -111 -2
-116 17 -113 14 2 19 9 16 23 -2 11 -6 61 -8 112 -5 102 9 145 64 193 51 45
68 50 179 50 93 0 110 -3 137 -22 82 -58 97 -90 97 -215 l0 -103 35 0 c40 0
39 -2 20 37 -37 74 -41 192 -9 255 40 78 102 108 223 108 77 0 92 -3 128 -26
65 -42 87 -91 100 -216 5 -53 8 -58 29 -58 28 0 29 2 8 42 -22 43 -44 118 -44
154 0 44 28 118 53 142 58 54 187 94 232 74 14 -7 33 -12 42 -12 44 0 111 -87
128 -165 3 -16 9 -46 13 -65 5 -23 10 -31 15 -22 5 6 17 12 28 12 21 0 26 15
8 25 -11 7 -51 91 -67 141 -13 41 4 119 34 160 32 44 139 94 201 94 51 0 119
-26 143 -55 20 -25 58 -102 65 -135 8 -38 17 -43 43 -24 l22 15 -28 42 c-16
23 -39 64 -51 91 -20 44 -22 55 -12 90 25 86 37 102 112 148 48 28 62 32 123
31 59 -1 73 -5 103 -30 20 -15 49 -54 67 -85 34 -62 32 -60 63 -52 26 7 37 30
18 38 -7 2 -33 33 -56 68 -39 57 -43 68 -42 120 3 86 50 144 162 198 68 34
163 -9 225 -101 l33 -50 32 30 31 29 -28 21 c-16 11 -48 44 -70 74 -49 63 -55
113 -21 174 38 70 130 143 179 143 60 0 126 -36 165 -89 17 -22 35 -41 41 -41
6 0 25 18 43 40 25 32 28 40 15 40 -45 0 -164 125 -164 173 0 41 45 128 87
169 48 47 86 61 138 52 53 -9 83 -25 124 -68 19 -20 38 -36 42 -36 14 0 70 90
64 100 -3 6 -15 10 -26 10 -50 0 -169 113 -169 160 1 58 44 143 99 193 33 30
49 37 81 37 49 0 118 -31 155 -70 16 -17 32 -30 36 -30 12 0 47 54 54 83 7 25
5 27 -24 27 -72 0 -201 102 -201 160 0 17 4 38 9 48 5 9 19 37 31 62 30 59 76
108 109 115 33 7 98 -15 163 -55 57 -35 68 -37 68 -11 0 11 5 23 10 26 22 13
10 35 -19 35 -16 0 -46 8 -68 18 -128 62 -131 63 -148 102 -20 44 -19 49 36
168 16 35 29 66 29 69 0 3 -156 2 -347 -3 -192 -5 -913 -9 -1603 -9 l-1255 0
0 75 0 75 1100 -2 c605 0 1325 -6 1600 -11 275 -6 501 -9 501 -9 2 2 -52 120
-67 149 -14 26 -11 65 7 99 22 44 150 104 231 108 14 1 -1 45 -24 70 -11 13
-15 13 -30 -1 -26 -23 -82 -52 -130 -67 -71 -23 -113 4 -172 112 -44 82 -43
141 2 184 30 29 152 93 176 93 6 0 11 2 11 5 0 4 -28 57 -46 87 -3 4 -25 -8
-51 -28 -58 -44 -105 -64 -152 -64 -73 0 -171 128 -171 223 0 37 6 49 44 89
25 25 65 55 90 67 25 11 46 26 46 31 0 12 -40 71 -55 82 -5 4 -21 -6 -33 -23
-34 -43 -98 -72 -157 -73 -44 -1 -56 4 -99 38 -56 46 -96 121 -96 179 0 33 8
49 45 92 24 29 60 60 80 69 39 19 39 19 -8 73 l-20 22 -51 -54 c-51 -53 -96
-75 -158 -75 -36 0 -148 85 -170 130 -9 19 -17 58 -18 86 0 41 6 58 32 95 18
24 46 56 63 71 l30 27 -26 27 c-29 29 -27 30 -80 -44 -38 -52 -74 -72 -143
-79 -47 -4 -56 -2 -113 35 -34 23 -70 53 -80 68 -29 44 -43 112 -30 148 14 41
62 111 90 131 l22 16 -24 20 c-13 10 -27 19 -31 19 -4 0 -25 -30 -46 -67 -43
-73 -77 -99 -142 -109 -121 -18 -261 94 -262 209 0 37 42 130 76 168 18 20 18
29 -3 45 -29 22 -43 16 -43 -15 0 -44 -55 -142 -94 -169 -70 -47 -178 -39
-274 22 -40 26 -82 107 -82 158 0 41 29 114 66 164 25 34 21 48 -18 57 -26 7
-27 6 -34 -50 -17 -143 -87 -213 -213 -213 -60 0 -151 28 -182 56 -33 30 -59
97 -59 155 0 52 27 146 49 173 14 16 -5 36 -34 36 -18 0 -20 -7 -22 -86 -2
-99 -17 -139 -69 -182 -64 -53 -147 -63 -257 -32 -52 15 -103 63 -123 115 -21
56 -16 174 10 224 19 36 15 46 -24 56 l-25 6 3 -98 c3 -88 1 -103 -22 -147
-40 -79 -110 -116 -221 -116 -108 0 -177 36 -215 111 -16 30 -20 58 -20 134 0
53 5 105 10 116 10 17 7 19 -20 19 -27 0 -30 -2 -20 -19z m-495 -2013 c13 -29
56 -123 94 -208 38 -85 80 -180 94 -210 14 -30 35 -77 47 -105 12 -27 33 -74
46 -103 13 -29 24 -57 24 -63 0 -6 -25 -9 -62 -7 l-63 3 -27 50 c-14 28 -27
57 -27 66 -2 35 -30 43 -158 46 -68 2 -132 -1 -142 -6 -10 -6 -33 -44 -52 -85
l-34 -76 -62 0 c-41 0 -63 4 -63 12 0 6 12 36 26 67 124 263 159 340 191 409
14 31 45 99 69 150 24 52 44 98 44 103 0 5 7 9 15 9 9 0 26 -23 40 -52z m838
2 l47 -22 0 -64 c0 -34 -4 -65 -8 -68 -5 -3 -26 6 -47 21 -58 39 -140 55 -203
39 -75 -20 -126 -63 -169 -145 -17 -30 -17 -172 0 -208 38 -87 118 -143 214
-151 57 -5 95 7 153 45 55 37 61 32 58 -44 -3 -77 -7 -81 -116 -109 -159 -42
-337 41 -419 197 -26 49 -28 63 -28 159 0 96 3 110 29 165 50 100 151 185 246
206 64 14 191 3 243 -21z m1108 0 c20 -13 46 -39 58 -57 25 -39 21 -49 -34
-79 l-35 -19 -23 26 c-46 55 -137 52 -165 -3 -25 -53 2 -82 120 -132 75 -31
139 -82 162 -128 24 -48 21 -147 -6 -198 -32 -60 -62 -86 -124 -110 -63 -23
-104 -25 -154 -7 -74 26 -108 56 -140 122 -41 86 -33 101 59 108 31 2 35 -1
47 -38 29 -83 112 -111 173 -59 28 23 31 32 31 79 0 50 -3 56 -37 84 -21 17
-41 31 -45 31 -14 0 -123 53 -150 73 -46 34 -68 81 -68 143 0 123 91 198 230
191 47 -3 76 -11 101 -27z m-2453 7 c122 -37 180 -156 140 -289 -22 -75 -129
-138 -232 -138 l-36 0 0 -127 c0 -71 -4 -134 -9 -141 -5 -9 -25 -12 -62 -10
l-54 3 -3 335 c-1 184 0 345 3 358 5 21 10 22 108 22 56 0 121 -6 145 -13z
m1652 -120 l5 -127 130 130 130 130 67 0 c55 0 68 -3 68 -16 0 -9 -68 -84
-150 -167 l-150 -151 22 -25 c13 -14 25 -28 28 -31 7 -7 152 -181 170 -204 8
-10 32 -39 53 -63 20 -24 37 -49 37 -54 0 -6 -31 -9 -77 -7 l-77 3 -116 142
c-63 78 -121 144 -127 147 -10 4 -13 -28 -13 -144 l0 -150 -60 0 -60 0 0 360
0 361 58 -3 57 -3 5 -128z m-616 -798 l106 -112 0 94 c0 105 6 122 41 117 l24
-3 3 -172 c2 -142 0 -173 -11 -173 -13 0 -130 113 -189 183 -13 15 -27 27 -31
27 -4 0 -7 -43 -7 -95 0 -87 -2 -95 -22 -106 -35 -19 -43 6 -41 127 1 60 2
135 2 167 1 31 5 57 10 57 4 0 56 -50 115 -111z m320 95 c3 -9 -6 -41 -20 -70
-21 -43 -31 -54 -50 -54 -13 0 -24 4 -24 10 0 16 32 104 42 118 15 17 45 15
52 -4z m-1399 -546 c161 -169 386 -398 391 -398 2 0 4 99 4 220 0 207 1 220
19 230 27 14 88 13 97 -2 9 -14 7 -738 -1 -747 -3 -3 -24 15 -46 39 -23 25
-127 134 -233 243 -105 110 -192 203 -194 208 -2 5 -8 9 -13 9 -5 0 -10 -102
-11 -227 l-3 -228 -60 0 -60 0 -3 360 c-1 198 0 366 3 372 2 7 8 13 13 13 5 0
49 -42 97 -92z m984 60 c7 -18 23 -55 36 -83 13 -27 33 -72 45 -100 12 -27 39
-88 60 -135 21 -47 48 -107 60 -135 12 -27 32 -72 45 -100 51 -112 65 -145 65
-155 0 -7 -24 -10 -65 -8 l-66 3 -32 75 -32 75 -147 3 -147 3 -20 -43 c-10
-24 -26 -60 -34 -80 -16 -38 -16 -38 -76 -38 -33 0 -62 4 -65 8 -4 7 85 208
199 447 78 165 125 268 125 275 0 7 15 17 30 19 3 1 11 -14 19 -31z m-1355 1
c41 -11 126 -88 126 -114 0 -9 -8 -18 -17 -22 -10 -3 -30 -15 -45 -25 l-27
-19 -30 33 c-25 28 -36 33 -74 33 -34 0 -52 -6 -71 -24 -55 -52 -29 -87 114
-154 126 -58 162 -100 168 -194 6 -85 -16 -141 -75 -193 -25 -22 -54 -40 -64
-40 -10 0 -21 -4 -24 -10 -9 -14 -103 -12 -149 4 -22 7 -54 25 -71 39 -37 29
-75 103 -75 145 0 25 5 29 47 38 60 14 71 10 79 -31 23 -125 214 -101 214 27
0 30 -68 108 -93 108 -7 0 -32 9 -55 20 -22 11 -45 20 -50 20 -4 0 -27 16 -50
36 -96 82 -94 192 4 281 54 48 138 64 218 42z m2194 -19 l52 -22 0 -69 c0 -55
-3 -69 -15 -69 -8 0 -15 4 -15 9 0 22 -96 54 -165 55 -84 1 -127 -17 -178 -74
-50 -54 -67 -100 -67 -179 0 -205 215 -320 384 -206 20 14 41 25 46 25 6 0 10
-31 10 -68 0 -65 -1 -70 -27 -82 -189 -93 -415 -15 -509 175 -26 54 -29 70
-29 155 1 81 5 104 27 152 47 101 134 178 243 214 59 20 178 12 243 -16z
m1087 11 c43 -19 105 -82 105 -107 0 -8 -8 -17 -17 -21 -10 -3 -28 -15 -40
-26 l-22 -19 -31 32 c-26 27 -41 33 -75 34 -23 1 -54 -5 -68 -13 -23 -12 -27
-21 -27 -56 0 -46 5 -50 141 -108 64 -28 122 -76 144 -119 19 -39 20 -144 1
-189 -64 -154 -289 -187 -393 -57 -33 40 -59 109 -50 132 5 12 96 38 108 31 3
-2 11 -22 19 -44 19 -58 43 -76 101 -76 40 0 54 5 76 28 53 52 32 141 -40 174
-102 48 -164 80 -178 93 -69 66 -80 154 -29 234 54 85 180 121 275 77z m-775
-130 l5 -134 132 137 131 136 66 0 c56 0 66 -3 66 -17 0 -10 -66 -84 -147
-165 l-146 -147 17 -27 c10 -14 29 -38 41 -53 31 -34 52 -60 95 -112 19 -24
61 -75 93 -112 31 -38 57 -74 57 -79 0 -5 -35 -8 -77 -6 l-77 3 -113 140 c-62
77 -120 141 -128 143 -13 3 -15 -18 -15 -142 l0 -146 -60 0 -60 0 0 354 c0
274 3 356 13 360 6 3 32 4 57 3 l45 -2 5 -134z"/>
<path d="M8028 11458 c-43 -92 -58 -128 -58 -138 0 -6 35 -10 80 -10 63 0 82
3 86 15 4 8 2 21 -3 28 -5 6 -20 39 -33 72 -36 93 -43 96 -72 33z"/>
<path d="M7458 11540 c-2 -50 -1 -95 0 -100 5 -15 80 -12 112 5 59 31 69 107
21 156 -25 24 -38 29 -80 29 l-50 0 -3 -90z"/>
<path d="M8494 10178 c-5 -7 -25 -49 -46 -93 -27 -58 -34 -81 -25 -87 14 -9
128 -11 150 -2 13 4 8 22 -25 97 -48 108 -44 102 -54 85z"/>
<path d="M5875 13166 c-155 -43 -248 -104 -329 -216 -55 -75 -95 -199 -96
-295 0 -51 25 -187 39 -213 6 -10 29 11 88 80 86 99 309 320 408 405 94 81 99
85 179 147 42 33 76 63 76 67 0 13 -15 18 -97 34 -103 20 -171 18 -268 -9z"/>
<path d="M11066 13175 c-53 -12 -87 -29 -75 -38 2 -2 36 -28 74 -57 184 -140
447 -387 575 -540 77 -91 79 -93 94 -87 17 7 25 54 33 176 5 94 1 117 -35 220
-44 123 -171 244 -308 292 -135 48 -243 59 -358 34z"/>
<path d="M5143 12404 c-7 -7 -13 -17 -13 -21 0 -5 -8 -24 -19 -43 -10 -19 -24
-52 -30 -72 -7 -21 -17 -38 -22 -38 -5 0 -9 -7 -9 -15 0 -8 -9 -34 -19 -58
-26 -59 -52 -136 -58 -174 -3 -18 -9 -33 -14 -33 -5 0 -9 -6 -9 -13 0 -8 -9
-40 -19 -73 -30 -93 -58 -194 -71 -254 -7 -30 -19 -84 -27 -120 -7 -36 -16
-81 -18 -100 -2 -19 -11 -79 -20 -134 -15 -94 -15 -144 0 -101 3 11 11 28 16
37 5 10 9 27 9 37 0 11 5 23 10 26 6 3 10 13 10 21 0 8 9 36 21 62 31 71 37
83 50 127 8 22 21 52 31 67 10 14 18 36 18 47 0 12 4 21 8 21 5 0 15 18 22 40
7 22 16 40 20 40 3 0 12 17 19 37 8 20 22 46 32 57 11 11 19 28 19 38 0 10 5
18 10 18 6 0 10 8 10 18 0 9 9 28 20 42 11 14 20 31 20 38 0 6 5 12 10 12 6 0
10 7 10 15 0 8 3 15 8 15 4 0 14 15 21 33 8 17 23 43 33 57 18 24 18 27 -2 80
-11 30 -20 65 -20 77 0 12 -4 24 -9 27 -10 6 -19 44 -29 122 -6 42 -9 49 -19
38z"/>
<path d="M12067 12384 c-4 -4 -7 -22 -7 -40 0 -18 -4 -36 -10 -39 -5 -3 -10
-21 -10 -40 0 -19 -4 -37 -10 -40 -5 -3 -10 -19 -10 -35 0 -16 -4 -31 -9 -34
-4 -3 -11 -20 -15 -38 -5 -26 0 -42 29 -86 38 -57 65 -102 99 -167 12 -22 23
-42 26 -45 13 -13 50 -91 50 -104 0 -9 3 -16 8 -16 8 0 32 -49 32 -67 0 -7 5
-13 10 -13 6 0 10 -7 10 -15 0 -8 9 -30 20 -50 11 -20 20 -42 20 -50 0 -15 4
-26 28 -72 7 -13 12 -30 12 -38 0 -8 5 -15 10 -15 6 0 10 -8 10 -17 0 -20 39
-133 51 -148 10 -14 29 -162 30 -240 0 -50 2 -56 10 -35 14 33 3 210 -22 375
-20 132 -25 159 -54 275 -9 36 -20 81 -24 100 -16 74 -54 190 -63 190 -5 0 -7
4 -3 9 7 12 -23 90 -43 114 -9 9 -15 32 -14 50 0 17 -13 64 -30 102 -17 39
-34 79 -38 90 -14 43 -66 139 -76 142 -5 2 -13 0 -17 -3z"/>
<path d="M12432 10830 c-7 -11 -18 -20 -26 -20 -8 0 -27 -7 -42 -15 l-29 -15
53 0 52 0 0 -55 0 -55 -42 0 -43 -1 38 -20 c20 -11 37 -25 38 -32 7 -99 -39
-410 -72 -484 -10 -24 -19 -47 -19 -53 0 -6 -4 -18 -9 -28 -5 -9 -17 -35 -26
-57 -10 -22 -23 -53 -31 -69 -8 -16 -14 -37 -14 -48 0 -10 -4 -18 -10 -18 -5
0 -10 -7 -10 -15 0 -8 -4 -15 -10 -15 -5 0 -10 -6 -10 -12 0 -18 -121 -259
-142 -282 -10 -11 -18 -24 -18 -29 0 -4 -13 -28 -30 -52 -16 -24 -30 -48 -30
-54 0 -6 -4 -11 -10 -11 -5 0 -10 -7 -10 -15 0 -8 -4 -15 -10 -15 -5 0 -10 -7
-10 -15 0 -8 -4 -15 -8 -15 -5 0 -15 -12 -23 -27 -8 -16 -22 -35 -31 -44 -10
-9 -18 -23 -18 -30 0 -8 -9 -20 -20 -27 -11 -7 -20 -19 -20 -27 0 -8 -4 -15
-8 -15 -5 0 -15 -12 -23 -27 -15 -30 -26 -43 -74 -95 -17 -19 -36 -42 -41 -51
-12 -20 -116 -138 -161 -182 -18 -17 -33 -37 -33 -43 0 -7 -5 -12 -10 -12 -6
0 -37 -26 -68 -57 -100 -100 -249 -231 -332 -293 -18 -14 -38 -30 -44 -35 -6
-6 -27 -22 -46 -35 -19 -13 -41 -30 -48 -37 -7 -7 -17 -13 -22 -13 -5 0 -20
-11 -34 -25 -14 -14 -32 -25 -41 -25 -8 0 -15 -4 -15 -9 0 -5 -13 -14 -30 -21
-16 -7 -30 -16 -30 -20 0 -4 -13 -13 -30 -20 -16 -7 -30 -16 -30 -21 0 -5 -6
-9 -13 -9 -7 0 -23 -9 -35 -20 -12 -11 -28 -20 -36 -20 -8 0 -16 -3 -18 -7 -1
-5 -33 -24 -70 -43 -38 -19 -68 -38 -68 -42 0 -5 -5 -8 -12 -8 -19 0 -108 -43
-108 -52 0 -4 -6 -8 -13 -8 -18 0 -67 -24 -67 -32 0 -5 -9 -8 -19 -8 -11 0
-36 -9 -58 -19 -71 -36 -133 -61 -147 -61 -8 0 -18 -4 -21 -10 -3 -5 -15 -10
-25 -10 -11 0 -35 -9 -55 -20 -20 -11 -47 -20 -60 -20 -14 0 -35 -5 -48 -12
-48 -24 -57 -28 -77 -28 -11 0 -20 -4 -20 -10 0 -5 -18 -10 -39 -10 -22 0 -43
-4 -46 -10 -3 -5 -21 -10 -40 -10 -19 0 -37 -4 -40 -10 -3 -5 -17 -10 -31 -10
-13 0 -24 -3 -24 -7 0 -5 -21 -9 -48 -11 -26 -1 -58 -6 -72 -11 -24 -8 -68
-16 -220 -40 -120 -19 -165 -23 -280 -28 -63 -2 -120 -9 -127 -15 -7 -6 -24
-7 -37 -4 -15 4 -30 1 -39 -9 -13 -13 -16 -13 -21 1 -4 10 -13 13 -33 8 -15
-4 -32 -7 -38 -6 -23 3 -177 12 -265 16 -52 3 -112 7 -132 10 -20 3 -40 2 -43
-4 -10 -16 -25 -12 -19 5 5 12 -2 15 -28 15 -19 0 -40 -6 -47 -12 -11 -11 -12
-10 -6 1 6 10 -2 12 -37 10 -33 -3 -44 -1 -41 9 4 8 -9 12 -45 12 -28 0 -54 5
-57 10 -3 6 -23 10 -44 10 -20 0 -41 4 -46 9 -6 5 -29 12 -52 15 -105 15 -123
19 -129 27 -3 5 -20 9 -39 9 -19 0 -37 5 -41 11 -4 7 -21 9 -40 6 -25 -4 -34
-2 -34 9 0 9 -11 14 -30 14 -16 0 -30 5 -30 10 0 6 -11 10 -24 10 -14 0 -28 5
-31 10 -3 6 -19 10 -35 10 -16 0 -32 5 -35 10 -3 6 -14 10 -25 10 -10 0 -38
10 -62 21 -50 26 -69 33 -123 51 -22 7 -42 15 -45 19 -3 3 -41 20 -85 39 -44
19 -91 41 -105 50 -14 9 -38 22 -55 29 -16 7 -41 20 -55 28 -14 8 -33 17 -42
20 -10 3 -18 9 -18 13 0 4 -11 11 -24 14 -14 3 -31 12 -38 19 -7 6 -33 23 -57
36 -24 13 -77 46 -117 73 -41 26 -77 48 -82 48 -4 0 -14 9 -22 20 -8 11 -20
20 -26 20 -7 0 -26 14 -44 30 -18 17 -35 30 -39 30 -9 0 -183 139 -248 198
-28 26 -76 69 -105 95 -77 71 -208 200 -208 206 0 3 -22 29 -48 56 -55 59 -95
105 -137 159 -16 21 -36 45 -42 52 -7 7 -13 17 -13 23 0 6 -4 11 -8 11 -4 0
-15 12 -24 28 -9 15 -28 41 -42 57 -14 17 -26 36 -26 43 0 6 -4 12 -10 12 -5
0 -10 6 -10 13 -1 6 -14 28 -30 47 -17 19 -30 39 -30 45 0 6 -9 17 -20 25 -11
8 -20 22 -20 31 0 9 -7 22 -16 30 -9 7 -23 30 -31 51 -8 21 -19 38 -23 38 -4
0 -10 8 -13 18 -3 9 -13 29 -21 45 -70 123 -177 349 -207 440 -7 20 -17 37
-21 37 -4 0 -8 11 -8 25 0 14 -4 25 -10 25 -5 0 -10 13 -10 29 0 17 -5 33 -10
36 -5 3 -10 15 -10 26 0 10 -4 19 -9 19 -5 0 -12 29 -16 65 -3 36 -11 67 -16
70 -12 8 -12 -58 1 -126 5 -30 17 -99 25 -154 19 -125 66 -341 85 -389 4 -11
16 -50 25 -86 24 -87 56 -183 67 -195 4 -5 8 -18 8 -30 0 -12 4 -25 10 -31 5
-5 21 -43 36 -84 14 -41 32 -86 39 -100 8 -14 30 -58 50 -98 19 -40 40 -81 44
-90 5 -9 22 -44 37 -76 27 -60 72 -137 183 -316 112 -180 363 -487 510 -624
24 -23 60 -57 81 -76 78 -74 117 -107 160 -137 25 -17 55 -41 66 -54 12 -13
42 -40 68 -59 25 -19 55 -42 65 -50 18 -14 87 -61 227 -154 29 -19 69 -42 90
-51 21 -9 41 -19 44 -24 3 -4 45 -29 95 -55 49 -26 94 -51 100 -56 5 -4 21
-11 33 -15 13 -4 65 -26 115 -49 51 -24 119 -53 152 -65 33 -13 74 -28 90 -35
27 -12 65 -23 284 -87 35 -11 71 -19 81 -19 9 0 30 -6 46 -14 36 -18 193 -47
300 -55 45 -3 87 -11 95 -18 48 -39 874 -37 1094 3 50 9 102 18 117 20 45 6
230 44 263 54 17 5 59 16 95 26 88 22 315 97 370 122 25 11 65 27 90 37 25 9
61 26 80 37 19 11 48 24 64 29 39 11 321 166 431 237 50 32 125 85 169 117 43
33 88 67 101 75 51 34 268 226 379 335 153 150 465 533 466 571 0 6 9 19 20
29 11 10 20 24 20 32 0 7 5 13 10 13 6 0 10 4 10 9 0 6 25 49 56 98 66 105
233 442 264 533 13 36 31 83 40 105 10 22 23 58 30 80 6 22 15 49 20 60 5 11
18 52 29 90 11 39 25 88 31 110 7 22 16 57 21 78 41 170 49 206 49 236 0 15 4
41 9 57 6 16 12 52 15 79 3 28 10 91 16 140 15 112 18 484 4 507 -9 16 -10 16
-22 -2z m-4011 -3347 c13 -16 12 -17 -3 -4 -10 7 -18 15 -18 17 0 8 8 3 21
-13z m224 -23 c3 -5 1 -10 -4 -10 -6 0 -11 5 -11 10 0 6 2 10 4 10 3 0 8 -4
11 -10z"/>
<path d="M4770 10790 c0 -30 0 -30 60 -30 72 0 73 18 2 43 -61 22 -62 22 -62
-13z"/>
<path d="M4770 10661 c0 -17 3 -32 8 -34 4 -3 39 10 77 28 l70 33 -77 1 -78 1
0 -29z"/>
<path d="M4761 10453 c0 -10 4 -27 9 -38 7 -17 9 -15 9 12 1 17 -3 35 -9 38
-5 3 -10 -2 -9 -12z"/>
<path d="M7616 7919 c-11 -33 -23 -62 -28 -65 -20 -13 -6 -34 22 -34 l30 0 0
80 c0 44 -1 80 -3 80 -1 0 -11 -27 -21 -61z"/>
</g>
</svg>
